<?xml version="1.0" ?><!DOCTYPE svg  PUBLIC '-//W3C//DTD SVG 1.0//EN'  'http://www.w3.org/TR/2001/REC-SVG-20010904/DTD/svg10.dtd'><svg height="16" style="overflow:visible;enable-background:new 0 0 16 16" viewBox="0 0 16 16" width="16" xml:space="preserve" xmlns="http://www.w3.org/2000/svg" xmlns:xlink="http://www.w3.org/1999/xlink"><g><g id="Sleeping"><path d="M1.5,3C2.3,3,3,2.3,3,1.5S2.3,0,1.5,0S0,0.7,0,1.5S0.7,3,1.5,3z M8.2,1.2H7.3v0       C7.4,1.2,7.5,1.1,7.5,1l0.7-0.8V0H7.1v0.2h0.8v0C7.8,0.3,7.7,0.4,7.7,0.4L7,1.3v0.2h1.2V1.2z M6.2,2.2H5.3v0       C5.4,2.2,5.5,2.1,5.5,2l0.7-0.8V1H5.1v0.2h0.8v0C5.8,1.3,5.7,1.4,5.7,1.4L5,2.3v0.2h1.2V2.2z M0.5,6H0v10h0.5v-4H4v4h0.5v-4.5       h-4V6z M16,8.5V8H7c0.6,0,1-0.4,1-1S7.6,6,7,6H3.5L2.9,4.6C2.7,4.1,2.1,3.9,1.6,4.1C1.1,4.3,0.9,4.8,1.1,5.3h0l0,0.1       c0,0,0,0,0,0l2,5h0C3.2,10.7,3.6,11,4,11h3v4c0,0.6,0.4,1,1,1s1-0.4,1-1v-5c0-0.6-0.4-1-1-1H4.7L4.3,8h2.2v0.5H12v7h-0.5V16H13       v-0.5h-0.5v-7H16z"/></g></g></svg>