<?xml version="1.0" ?><!DOCTYPE svg  PUBLIC '-//W3C//DTD SVG 1.1//EN'  'http://www.w3.org/Graphics/SVG/1.1/DTD/svg11.dtd'><svg enable-background="new 0 0 32 32" height="32px" id="Layer_1" version="1.1" viewBox="0 0 32 32" width="32px" xml:space="preserve" xmlns="http://www.w3.org/2000/svg" xmlns:xlink="http://www.w3.org/1999/xlink"><g><defs><rect height="32" id="SVGID_1_" width="32"/></defs><g><defs><rect height="32" id="SVGID_3_" width="32"/></defs><path d="M23.881,17.305L11.638,29.547c-0.317,0.315-0.67,0.455-1.012,0.455    c-0.379,0-0.743-0.171-1.028-0.455l-7.142-7.143c-0.543-0.544-0.667-1.373,0-2.04l1.589-1.591l2.181,2.184    c0.076,0.073,0.179,0.108,0.29,0.108c0.016,0,0.032-0.001,0.049-0.002c0.127-0.013,0.26-0.074,0.368-0.183    c0.216-0.215,0.249-0.531,0.075-0.707l-2.182-2.181l3.312-3.311l2.181,2.179c0.078,0.077,0.181,0.113,0.291,0.113    c0.015,0,0.031,0,0.047-0.001c0.127-0.014,0.26-0.079,0.369-0.186c0.216-0.216,0.249-0.531,0.072-0.707L8.918,13.9l3.313-3.311    l2.178,2.179c0.079,0.077,0.181,0.112,0.29,0.112c0.016,0,0.033,0,0.049-0.002c0.128-0.014,0.262-0.075,0.368-0.186    c0.216-0.213,0.25-0.529,0.076-0.705l-2.181-2.18L14.7,8.123c0.349-0.351,0.815-0.516,1.257-0.516    c0.404,0,0.788,0.137,1.046,0.396l7,7C24.545,15.544,24.551,16.635,23.881,17.305 M25.002,14l-7-7l2.502-2.498l7,7L25.002,14z     M29.221,5.371l-1.714,1.166C27.785,7.804,27.949,8.76,27.002,10l-5-5c0.711-0.545,1.328-0.722,1.964-0.722    c0.475,0,0.959,0.099,1.501,0.217l1.166-1.711C27.146,2.269,27.796,2,28.391,2c0.441,0,0.854,0.148,1.158,0.453    C30.263,3.168,30.115,4.475,29.221,5.371" fill="#231F20"/></g></g></svg>