<?xml version="1.0" ?><!DOCTYPE svg  PUBLIC '-//W3C//DTD SVG 1.1//EN'  'http://www.w3.org/Graphics/SVG/1.1/DTD/svg11.dtd'><svg enable-background="new 0 0 504.767 500" height="500px" id="Layer_1" version="1.1" viewBox="0 0 504.767 500" width="504.767px" xml:space="preserve" xmlns="http://www.w3.org/2000/svg" xmlns:xlink="http://www.w3.org/1999/xlink"><g><path d="M252.738,262.365c-64.352,0-99.241-21.922-116-37.665v215.029c0,17.159,13.948,30.728,30.833,30.728h1.167   v12.779c0,6.81,5.691,12.381,12.5,12.381s12.5-5.571,12.5-12.381v-12.779h113v12.779c0,6.81,5.691,12.381,12.5,12.381   s12.5-5.571,12.5-12.381v-12.779h4.192c16.885,0,29.808-13.568,29.808-30.728v-214.41   C349.603,241.091,316.098,262.365,252.738,262.365z" fill="#333333"/><path d="M136.776,201.739c0.139,0.24,6.806,11.556,24.11,22.722c16.19,10.449,45.269,22.904,91.852,22.904   c46.459,0,74.612-12.382,90.048-22.77c16.542-11.131,22.394-22.407,22.451-22.52c0.148-0.303,0.319-0.584,0.501-0.857v-18.307   c0-17.158-12.923-31.455-29.808-31.455h-38.192v-122h16.437c4.618,0,8.563-2.948,8.563-7.566v-8.237   c0-4.618-3.946-8.196-8.563-8.196H188.194c-4.618,0-8.456,3.578-8.456,8.196v8.237c0,4.618,3.838,7.566,8.456,7.566h15.544v122   h-36.167c-16.885,0-30.833,14.297-30.833,31.455v18.767C136.75,201.699,136.764,201.719,136.776,201.739z M221.738,29.457h62v116   h-62V29.457z" fill="#333333"/></g></svg>