<?xml version="1.0" ?><!DOCTYPE svg  PUBLIC '-//W3C//DTD SVG 1.1//EN'  'http://www.w3.org/Graphics/SVG/1.1/DTD/svg11.dtd'><svg enable-background="new 0 0 48 48" id="Layer_1" version="1.1" viewBox="0 0 48 48" xml:space="preserve" xmlns="http://www.w3.org/2000/svg" xmlns:xlink="http://www.w3.org/1999/xlink"><g><path d="M28.1,24c0-2.3-1.8-4.1-4.1-4.1c-2.3,0-4.1,1.8-4.1,4.1c0,2.3,1.8,4.1,4.1,4.1C26.3,28.1,28.1,26.3,28.1,24z"/><path d="M31.8,26c-0.9,3.5-4,6.1-7.8,6.1c-3.7,0-6.9-2.6-7.8-6.1H7.1c-0.1,0-0.2,0-0.3,0L9,45.8c0.1,1,1,1.7,1.9,1.7h26.1   c1,0,1.8-0.7,1.9-1.7L41.3,26H31.8z"/><path d="M44.4,0.5H42H6H3.6c-1.1,0-2,0.9-2,2s0.9,2,2,2h0.6l2.1,17.8C6.5,22.1,6.8,22,7.1,22h9.2c0.9-3.5,4-6.1,7.8-6.1   c3.7,0,6.9,2.6,7.8,6.1h9.7c0.1,0,0.2,0,0.3,0l2-17.7h0.6c1.1,0,2-0.9,2-2S45.5,0.5,44.4,0.5z"/></g></svg>