<?xml version="1.0" ?><!DOCTYPE svg  PUBLIC '-//W3C//DTD SVG 1.1//EN'  'http://www.w3.org/Graphics/SVG/1.1/DTD/svg11.dtd'><svg enable-background="new 0 0 500 500" height="500px" id="Layer_1" version="1.1" viewBox="0 0 500 500" width="500px" xml:space="preserve" xmlns="http://www.w3.org/2000/svg" xmlns:xlink="http://www.w3.org/1999/xlink"><g><path d="M440.217,122h-85.17c-17.011,0-32.301,8.161-42.579,20.244L125.167,330H119v-39.353   c0-9.834-8.082-17.647-17.518-17.647h-0.745C91.302,273,84,280.812,84,290.647V330H60.752C30.014,330,4.534,354.011,4.5,384.74   C4.534,415.471,30.014,441,60.752,441c0,0,80.512,0,86.299,0c15.576,0,29.576-5.626,40.759-16.808L378.586,233h61.631   c30.76,0,54.783-25.14,54.783-55.899v-0.051C495,146.291,470.977,122,440.217,122z M475,177.101c0,9.552-3.396,18.721-10.02,25.362   C458.366,209.097,449.733,213,440.217,213h-61.631c-5.312,0-10.406,1.863-14.158,5.623l-190.76,191.302   C166.401,417.191,157.446,421,147.051,421H60.752c-19.629,0-36.229-16.865-36.252-36.488c0.01-9.3,3.735-17.881,10.488-24.388   C41.848,353.515,50.997,350,60.752,350h64.415c5.313,0,10.407-2.364,14.159-6.125l187.301-187.881   c0.373-0.375,0.732-0.576,1.074-0.979c7.138-8.391,17.105-13.016,27.346-13.016H440h0.217c9.493,0,18.117,3.42,24.737,10.085   c6.64,6.684,10.046,15.389,10.046,24.965V177.101z" fill="#333333"/><path d="M101.109,266.591c8.658,0,13.532-14.577,13.532-22.05c0-7.473-6.058-13.532-13.532-13.532   c-7.473,0-13.531,6.059-13.531,13.532C87.578,252.015,92.453,266.591,101.109,266.591z" fill="#333333"/><path d="M379.908,303.5c0,5.815,4.713,10.5,10.528,10.5h16.006L297.125,423.172c-4.111,4.111-4.111,10.705,0,14.816   c4.111,4.112,10.529,4.075,14.641-0.036L421,328.433v16.009c0,5.814,5.186,10.528,11,10.528s11-4.713,11-10.528V293h-52.563   C384.621,293,379.908,297.686,379.908,303.5z" fill="#333333"/></g></svg>