<?xml version="1.0" ?><!DOCTYPE svg  PUBLIC '-//W3C//DTD SVG 1.1//EN'  'http://www.w3.org/Graphics/SVG/1.1/DTD/svg11.dtd'><svg enable-background="new 0 0 500 500" height="500px" id="Layer_1" version="1.1" viewBox="0 0 500 500" width="500px" xml:space="preserve" xmlns="http://www.w3.org/2000/svg" xmlns:xlink="http://www.w3.org/1999/xlink"><g><path d="M217.223,238.338c0.471,2.231,2.717,15.143,33.006,15.143c15.012,0,24.854-2.713,29.253-8.061   c2.899-3.528,2.421-6.879,2.294-7.516c-0.428-2.18-2.545-3.599-4.723-3.167c-2.18,0.428-3.598,2.542-3.168,4.722   c0,0-0.441,0.638-0.617,0.853c-1.268,1.541-6.049,5.124-23.039,5.124c-22.9,0-25.031-8.173-25.051-8.256   C224.85,232.056,216.332,233.034,217.223,238.338z" fill="#333333"/><circle cx="289.529" cy="189.962" fill="#333333" r="11.817"/><circle cx="206.189" cy="189.962" fill="#333333" r="11.816"/><path d="M382.803,317h-0.096c0.062,0,0.096-0.022,0.096-0.022l-26.117-5.486c0.056-0.178,0.127-0.346,0.173-0.528   c5.273-20.669-14.611-55.502-20.305-64.884c3.11-6.437,5.798-13.228,8.015-20.333c5.674-2.334,10.857-5.837,15.235-10.368   c8.156-8.441,12.647-19.553,12.647-31.289c0-14.364-6.787-27.451-17.668-35.775c3.438-42.832-10.719-69.927-24.005-85.554   c-9.807-11.533-22.07-20.438-36.452-26.466c-13.408-5.62-27.988-8.47-43.342-8.47c-36.916,0-69.506,13.989-89.412,38.378   c-9.877,12.102-16.506,26.487-19.7,42.755c-2.447,12.459-2.854,26.033-1.225,40.511c-10.665,8.067-17.378,21.068-17.378,35.266   c0,12.072,4.729,23.363,13.314,31.791c5.57,5.468,12.349,9.32,19.745,11.315c4.315,13.211,10.26,25.31,17.62,35.951   c-9.793-2.908-22.76-5.033-39.933-5.452c-2.063-0.065-4.005,0.962-5.146,2.681s-1.318,3.902-0.471,5.783   c0.434,0.961,8.277,18.067,21.987,30.001c-19.632,2.462-44.232,9.953-69.175,28.955c-1.661,1.266-2.545,3.303-2.333,5.381   c0.211,2.077,1.487,3.895,3.369,4.8c0.399,0.192,8.557,4.083,20.489,7.63L59.221,419.74c0,0,74.871,53.577,189.957,53.577   c115.084,0,193.602-53.678,193.602-53.678L382.803,317z M171.867,208.987c-1.172,0.168-2.369,0.426-3.588,0.426   c-13.812,0-25.01-10.787-25.01-24.6c0-10.861,6.924-19.813,16.596-22.813h2.1c0.207,0,0.405-0.295,0.605-0.448   c26.276-3.087,94.096-14.909,121.847-56.316c14.964-22.327,10.585-39.131,0.747-51.037c5.723,2.274,11.16,5.166,16.2,8.685   c5.432,9.556,9.407,26.404-7.221,48.977c0,0,20.69,37.426,39.104,47.961c-0.005,0.031-0.01,0.061-0.015,0.091l0.155-0.013   c2.174,1.228,4.313,2.075,6.384,2.442c7.566,4.301,12.68,12.427,12.68,21.751c0,13.508-10.712,24.526-24.105,25.004   c-9.29,40.9-35.418,71.751-67.357,77.52c-4.254,0.552-8.501,0.865-13.023,0.926C212.073,286.276,181.934,253.659,171.867,208.987z    M304.766,297.733c0.388,0.521,1.163,0.868,2.305,1.032c7.189,1.033,10.979,2.935,11.587,5.812   c0.804,3.805-4.505,7.249-5.112,7.629c-0.068,0.042-0.14,0.076-0.215,0.101c-22.525,7.49-43.44,11.288-62.162,11.288   c-25.127,0-46.637-6.991-60.568-19.685c-2.289-2.085-2.255-3.85-1.824-4.963c1.094-2.823,6.156-4.576,13.214-4.576   c1.013,0,2.062,0.037,3.117,0.11c0.028,0.002,0.058,0.005,0.087,0.01c18.161,2.854,30.459,4.071,41.119,4.071   c14.326,0,26.08-2.322,41.533-6.333c6.367-2.318,10.521-3.397,13.074-3.397c1.471,0,2.498,0.364,3.145,1.112   c0.979,1.137,0.739,2.741,0.508,4.292C304.374,295.562,304.17,296.932,304.766,297.733z M144.301,270.85   c28.738,2.147,40.494,9.695,45.117,14.414c-5.393,1.898-9.146,5.185-10.9,9.711c-0.166,0.431-0.305,0.864-0.43,1.299   c-0.023,0-0.047,0.003-0.07,0.003c-1.194-0.109-2.454-0.206-3.78-0.285c-1.3-0.208-2.599-0.525-3.899-0.959   C158.719,291.158,149.563,279.28,144.301,270.85z M97.271,329.113c34.882-22.671,68.097-22.211,82.981-20.45   c0.809,1.19,1.783,2.326,2.939,3.379c0.021,0.02,0.045,0.037,0.065,0.056c-5.208,10.8-12.936,17.979-23.59,21.897   C138.51,341.779,111.514,334.287,97.271,329.113z M174.869,376.969c-0.503,0.163-1.021,0.242-1.537,0.242   c-1.17,0-2.32-0.411-3.237-1.189c-1.32-1.122-1.966-2.846-1.706-4.559l4.631-30.595c7.527-4.491,13.68-10.725,18.398-18.64   l4.505-0.949c3.7,2.143,7.651,4.041,11.829,5.683l10.252,36.068L174.869,376.969z M247.915,431.616l-28.663-100.937   c9.823,2.563,20.551,3.916,31.916,3.916c8.16,0,16.692-0.682,25.543-2.014L247.915,431.616z M287.736,330.615   c8.734-1.797,17.751-4.203,27.012-7.205l4.799,1.008l14.247,46.324c0.548,1.782,0.058,3.721-1.269,5.03   c-0.95,0.937-2.218,1.439-3.512,1.439c-0.514,0-1.032-0.079-1.537-0.242l-48.651-15.725L287.736,330.615z M365.467,416.601   L355.621,424H344.91l-5.91,6l-5.91-6h-10.711l-9.846-7.399l13.337,0.07L321.268,412H305.44L294,404h29l7.922,6.588L339,404   l8.078,6.588L355,404h29l-11.44,8h-15.827l-4.603,4.671L365.467,416.601z" fill="#333333"/></g></svg>