<?xml version="1.0" ?><!DOCTYPE svg  PUBLIC '-//W3C//DTD SVG 1.1//EN'  'http://www.w3.org/Graphics/SVG/1.1/DTD/svg11.dtd'><svg enable-background="new 0 0 500 500" height="500px" id="Layer_1" version="1.1" viewBox="0 0 500 500" width="500px" xml:space="preserve" xmlns="http://www.w3.org/2000/svg" xmlns:xlink="http://www.w3.org/1999/xlink"><g><path d="M190.682,272H205V168.626c-26-0.927-66.521-2.254-84.428-2.83l0.889-3.621   c6.328-0.726,11.74-5.445,13.15-11.771c0.02-0.084,0.054-0.169,0.067-0.257l14.278-86.07c1.138-5.479-2.34-10.895-7.82-12.117   c-0.736-0.164-1.487-0.248-2.238-0.248c-4.719,0-8.892,3.308-9.987,7.887l-23.835,83.935c-0.023,0.087-0.046,0.175-0.065,0.265   c-0.882,3.957-0.171,8.021,2.003,11.444c1.336,2.101,3.126,3.801,5.225,5.009l-1.188,5.252c-6.221,0.01-11.424,4.832-11.801,11.113   c-0.299,4.953,2.497,9.372,6.711,11.392l-2.789,12.335c-0.577,2.556,1.027,5.095,3.582,5.674c0.352,0.079,0.705,0.117,1.051,0.117   c2.168,0,4.125-1.495,4.623-3.699l2.824-12.494l82.257,13.169L190.682,272z M118.59,152.656c-1.484-0.33-2.752-1.219-3.566-2.502   c-0.796-1.252-1.069-2.731-0.776-4.18l23.823-83.896c0.026-0.088,0.049-0.176,0.069-0.264c0.106-0.479,0.562-0.679,0.937-0.596   c0.424,0.094,0.689,0.515,0.597,0.938c-0.021,0.086-0.038,0.171-0.05,0.257l-14.263,86.031c-0.615,2.527-2.921,4.35-5.521,4.35   C119.422,152.796,119.002,152.75,118.59,152.656z" fill="#333333"/><path d="M244.158,169.837l-24.609-7.358c-0.2-0.059-0.549-0.088-0.549-0.133V272h57V162.493l-24.289,7.287   C249.197,169.806,246.679,169.828,244.158,169.837z" fill="#333333"/><path d="M384.369,164.855l-1.041-4.605c2.098-1.208,3.889-2.908,5.224-5.009c2.175-3.423,2.887-7.487,2.003-11.444   c-0.02-0.09-0.042-0.178-0.066-0.265l-23.836-83.935c-1.095-4.579-5.27-7.887-9.987-7.887c-0.751,0-1.504,0.084-2.24,0.248   c-5.48,1.223-8.962,6.639-7.825,12.117l14.27,86.07c0.016,0.088,0.032,0.173,0.052,0.257c1.409,6.326,6.786,11.046,13.116,11.771   l0.368,3.097C356.566,166.079,289,168.68,289,168.68V272h13.797l-4.533-69.969l82.174-11.604l2.701,11.978   c0.498,2.203,2.455,3.714,4.623,3.714c0.346,0,0.698-0.031,1.051-0.109c2.555-0.579,4.159-3.114,3.58-5.671l-2.639-11.67   c4.543-2.091,7.573-6.8,7.256-12.092C396.606,169.886,390.986,164.778,384.369,164.855z M380.543,150.154   c-0.816,1.283-2.082,2.172-3.566,2.502c-0.414,0.094-0.832,0.14-1.249,0.14c-2.601,0-4.906-1.822-5.521-4.35l-14.264-86.031   c-0.014-0.086-0.031-0.171-0.051-0.257c-0.093-0.424,0.174-0.845,0.598-0.938c0.373-0.083,0.83,0.116,0.938,0.596   c0.02,0.088,0.041,0.176,0.066,0.264l23.824,83.896C381.611,147.423,381.338,148.902,380.543,150.154z" fill="#333333"/><path d="M303.677,285H189.338l-2.078,21.429c-0.452,4.586,2.762,8.935,7.317,9.629l11.304,1.826l-0.943,159.479   c0,0,0.186,15.137,14.727,15.137c9.943,0,14.682-6.694,14.719-14.803l7.029-147.689c0.207-3.205,10.068-3.485,10.405-0.334   c0.085,1.736,5.614,146.721,5.614,146.721c0.105,8.064,4.765,14.852,14.717,14.852c14.43,0,14.725-15.216,14.725-15.216   l-0.555-157.974l11.434-1.794c4.426-0.694,7.592-5.071,7.303-9.541L303.677,285z" fill="#333333"/><path d="M206.15,109.961c-0.249,0.305-0.486,0.621-0.708,0.95c-1.892,2.808-2.545,6.276-1.792,9.517l2.926,12.582   c1.291,5.563,6.315,9.449,12.217,9.449c1.002,0,2.008-0.114,2.99-0.343c2.455-0.57,4.576-1.801,6.229-3.44   c4.085,10.653,10.921,20.1,20.117,20.1c9.305,0,16.197-9.667,20.267-20.473c1.698,1.829,3.954,3.2,6.593,3.813   c0.98,0.229,1.988,0.343,2.992,0.343c5.899,0,10.922-3.886,12.215-9.451l2.926-12.58c0.717-3.086,0.145-6.372-1.544-9.104   c-0.005-0.51-0.037-1.105-0.104-1.804c-0.035-0.376-0.931-11.011-6.687-19.883c-5.404-8.331-16.172-18.262-36.77-18.262   c-39.793,0-41.862,38.019-41.879,38.385C206.135,109.834,206.15,109.891,206.15,109.961z M286.934,118.99l-2.925,12.581   c-0.632,2.721-3.173,4.536-6.028,4.536c-0.512,0-1.033-0.057-1.555-0.179c-3.443-0.8-5.631-4.049-4.886-7.256l2.923-12.582   c0.633-2.72,3.17-4.536,6.029-4.536c0.51,0,1.031,0.059,1.555,0.18C285.49,112.535,287.679,115.783,286.934,118.99z M221.08,94.512   c5.357-8.709,14.422-13.225,26.938-13.225c23.791,0,30.622,16.713,32.49,23.713c-0.006,0-0.011,0-0.016,0   c-3.587,0-6.842,1.544-9.139,3.919c-3.282-10.066-12.438-17.284-23.225-17.284c-10.65,0-19.709,7.1-23.094,16.969   c-2.121-2.007-4.965-3.236-8.096-3.391C217.482,102.507,218.639,98.48,221.08,94.512z M214.725,111.734   c0.523-0.121,1.043-0.18,1.555-0.18c2.858,0,5.396,1.816,6.028,4.536l2.923,12.582c0.746,3.207-1.441,6.456-4.885,7.256   c-0.521,0.122-1.043,0.179-1.553,0.179c-2.859,0-5.398-1.815-6.03-4.536l-2.925-12.581   C209.093,115.783,211.28,112.535,214.725,111.734z" fill="#333333"/><path d="M141.502,33.126c3.177,0,5.498-2.575,5.498-5.753V10.112c0-3.177-2.321-5.754-5.498-5.754   c-3.179,0-5.502,2.577-5.502,5.754v17.261C136,30.551,138.323,33.126,141.502,33.126z" fill="#333333"/><path d="M84.075,81H66.813c-3.177,0-5.753,2.822-5.753,6s2.576,6,5.753,6h17.262c3.177,0,5.752-2.822,5.752-6   S87.252,81,84.075,81z" fill="#333333"/><path d="M99.905,47.527c1.937-2.521,1.462-6.133-1.057-8.069L86.424,29.91c-2.521-1.936-6.133-1.463-8.069,1.057   s-1.462,6.131,1.058,8.068l12.426,9.548c1.045,0.802,2.277,1.19,3.502,1.19C97.064,49.773,98.772,49,99.905,47.527z" fill="#333333"/><path d="M190.758,49.773c1.225,0,2.458-0.389,3.503-1.19l12.425-9.548c2.52-1.938,2.993-5.549,1.058-8.068   s-5.549-2.992-8.068-1.057l-12.425,9.548c-2.521,1.937-2.994,5.549-1.058,8.069C187.326,49,189.031,49.773,190.758,49.773z" fill="#333333"/><path d="M355.5,33.126c3.178,0,5.5-2.575,5.5-5.753V10.112c0-3.177-2.322-5.754-5.5-5.754s-5.5,2.577-5.5,5.754   v17.261C350,30.551,352.322,33.126,355.5,33.126z" fill="#333333"/><path d="M430.345,81h-17.261c-3.178,0-5.754,2.822-5.754,6s2.576,6,5.754,6h17.261c3.178,0,5.753-2.822,5.753-6   S433.522,81,430.345,81z" fill="#333333"/><path d="M418.805,30.967c-1.938-2.52-5.549-2.992-8.07-1.057l-12.424,9.548c-2.52,1.937-2.993,5.549-1.057,8.069   c1.133,1.473,2.839,2.246,4.564,2.246c1.225,0,2.457-0.389,3.504-1.19l12.425-9.548C420.266,37.098,420.74,33.486,418.805,30.967z" fill="#333333"/><path d="M290.473,39.035l12.426,9.548c1.045,0.802,2.277,1.19,3.502,1.19c1.727,0,3.434-0.773,4.566-2.246   c1.936-2.521,1.463-6.133-1.057-8.069l-12.426-9.548c-2.52-1.936-6.133-1.463-8.068,1.057   C287.479,33.486,287.953,37.098,290.473,39.035z" fill="#333333"/></g></svg>