<?xml version="1.0" ?><!DOCTYPE svg  PUBLIC '-//W3C//DTD SVG 1.1//EN'  'http://www.w3.org/Graphics/SVG/1.1/DTD/svg11.dtd'><svg enable-background="new 0 0 500 500" height="500px" id="Layer_1" version="1.1" viewBox="0 0 500 500" width="500px" xml:space="preserve" xmlns="http://www.w3.org/2000/svg" xmlns:xlink="http://www.w3.org/1999/xlink"><g><path d="M227,345.581c0-6.948-5.633-12.581-12.58-12.581h-5.84c-6.947,0-12.58,5.632-12.58,12.581v24.839   c0,6.948,5.633,12.581,12.58,12.581h5.84c6.947,0,12.58-5.632,12.58-12.581V345.581z" fill="#333333"/><path d="M279,345.581c0-6.948-5.633-12.581-12.581-12.581h-5.838c-6.948,0-12.581,5.632-12.581,12.581v24.839   c0,6.948,5.633,12.581,12.581,12.581h5.838c6.948,0,12.581-5.632,12.581-12.581V345.581z" fill="#333333"/><path d="M311.537,194.618c-13.378-18.524-35.275-31.726-60.773-35.251l-6.956-49.821   c-0.001-3.033-3.087-5.545-6.888-5.545h-0.431c-3.802,0-6.88,2.522-6.878,5.554l-6.908,49.876   c-25.283,3.666-46.964,16.858-60.227,35.282L14.603,214.044c-5.751,0.005-10.408,4.673-10.403,10.423   c0.004,5.749,4.669,10.409,10.419,10.405l54.582,3.807c-0.463,1.656-0.729,3.394-0.729,5.198c0,10.656,8.638,19.293,19.294,19.293   c10.655,0,19.294-8.637,19.294-19.292c0-0.394-0.036-0.777-0.058-1.165l41.693,3.439c2.051,41.791,40.854,75.094,88.404,75.059   c47.55-0.036,86.305-33.398,88.293-75.193C325.393,212.167,311.537,194.618,311.537,194.618z M287.425,225.38   c-3.213,1.47-28.429,7.109-49.889,7.123c-22.299,0.019-47.503-6.03-48.563-6.287c-6.604-1.601-10.66-8.252-9.059-14.856   c1.6-6.602,8.248-10.656,14.852-9.062c0.23,0.058,23.45,5.612,42.752,5.598c17.74-0.014,37.824-4.542,40.922-5.387   c5.883-1.954,12.418,0.797,15.057,6.563C296.322,215.253,293.604,222.553,287.425,225.38z" fill="#333333"/><path d="M356.654,279h18.375c4.531-42,0.189-79-1.889-93h-22.414C356.953,202,367.148,237,356.654,279z" fill="#333333"/><path d="M385.004,279H403v-93h-19.812C385.428,201,389.387,237,385.004,279z" fill="#333333"/><path d="M483.426,186H413v93h70.426c6.543,0,11.574-5.305,11.574-11.85v-69.309   C495,191.298,489.969,186,483.426,186z" fill="#333333"/><path d="M335.309,245.995c0,0.158-0.004,0.361-0.012,0.518c-0.541,11.361-3.459,22.487-8.508,32.487h19.609   c11.68-43-1.137-81-6.41-93h-22.6c0.702,1,1.402,1.761,2.07,2.681C325.414,196.347,335.309,216.787,335.309,245.995z" fill="#333333"/><path d="M488.172,344h-39.197l-29.107-28.702L446.572,289h-21.034l-16.188,16.189L393.162,289h-21.035   l26.705,26.297L369.74,344h-37.52c-3.755,0-6.828,3.244-6.828,7l0,0c0,3.756,3.073,7,6.828,7h155.951c3.755,0,6.828-3.244,6.828-7   l0,0C495,347.244,491.927,344,488.172,344z M409.35,325.411L427.939,344h-37.176L409.35,325.411z" fill="#333333"/><path d="M343,363.939c-4.801,0-9,3.928-9,8.729v1.604c0,4.801,4.199,8.728,9,8.728s9-3.927,9-8.728v-1.604   C352,367.868,347.801,363.939,343,363.939z" fill="#333333"/><path d="M479,363.939c-4.801,0-9,3.928-9,8.729v1.604c0,4.801,4.199,8.728,9,8.728s9-3.927,9-8.728v-1.604   C488,367.868,483.801,363.939,479,363.939z" fill="#333333"/></g></svg>