<?xml version="1.0" ?><!DOCTYPE svg  PUBLIC '-//W3C//DTD SVG 1.1//EN'  'http://www.w3.org/Graphics/SVG/1.1/DTD/svg11.dtd'><svg enable-background="new 0 0 504.768 500" height="500px" id="Layer_1" version="1.1" viewBox="0 0 504.768 500" width="504.768px" xml:space="preserve" xmlns="http://www.w3.org/2000/svg" xmlns:xlink="http://www.w3.org/1999/xlink"><g><path d="M281.491,66.534l-0.256-0.767c-3.281-6.725-10.236-11.311-17.719-11.311h-23.004   c-7.558,0-14.332,4.298-17.678,11.075l-0.258,0.87l-10.964,36.055h80.594L281.491,66.534z M231.17,87.457l4.846-15.627   c0.95-1.569,2.634-2.373,4.496-2.373h23.004c1.842,0,3.565,0.833,4.508,2.396l4.741,15.604H231.17z" fill="#333333"/><path d="M406.209,469.457h-11.362c-6.555,0-11.786-6.059-11.786-12.613V156.175   c0-21.123-17.288-37.718-38.411-37.718H160.225c-21.124,0-38.163,16.595-38.163,37.718v300.669c0,6.555-5.479,12.613-12.034,12.613   H98.666c-7.295,0-13.21,5.704-13.21,13s5.915,13,13.21,13h11.362c21.124,0,38.034-17.491,38.034-38.613V177.312   c0-6.556,5.608-11.854,12.163-11.854H344.65c6.555,0,12.411,5.299,12.411,11.854v279.532c0,21.122,16.662,38.613,37.786,38.613   h11.362c7.296,0,13.21-5.704,13.21-13S413.505,469.457,406.209,469.457z M296.062,144.932c0,3.052-2.474,5.525-5.525,5.525h-77.95   c-3.051,0-5.525-2.474-5.525-5.525v-3.949c0-3.052,2.474-5.525,5.525-5.525h77.95c3.052,0,5.525,2.474,5.525,5.525V144.932z" fill="#333333"/><path d="M251.062,36.979c3.502,0,6-2.839,6-6.341V11.615c0-3.502-2.498-6.342-6-6.342s-6,2.84-6,6.342v19.022   C245.062,34.14,247.56,36.979,251.062,36.979z" fill="#333333"/><path d="M168.347,102.457h19.023c3.502,0,6.341-2.998,6.341-6.5s-2.839-6.5-6.341-6.5h-19.023   c-3.501,0-6.341,2.998-6.341,6.5S164.845,102.457,168.347,102.457z" fill="#333333"/><path d="M311.018,95.957c0,3.502,2.839,6.5,6.341,6.5h19.023c3.502,0,6.341-2.998,6.341-6.5s-2.839-6.5-6.341-6.5   h-19.023C313.857,89.457,311.018,92.455,311.018,95.957z" fill="#333333"/><path d="M182.23,43.49l13.694,10.522c1.152,0.885,2.511,1.312,3.859,1.312c1.903,0,3.784-0.853,5.033-2.477   c2.134-2.777,1.612-6.758-1.165-8.893l-13.694-10.522c-2.777-2.133-6.757-1.612-8.892,1.164   C178.932,37.375,179.454,41.355,182.23,43.49z" fill="#333333"/><path d="M304.945,55.325c1.349,0,2.708-0.428,3.859-1.312l13.694-10.522c2.777-2.135,3.299-6.115,1.165-8.893   c-2.134-2.776-6.116-3.297-8.892-1.164l-13.695,10.522c-2.777,2.135-3.298,6.115-1.165,8.893   C301.161,54.473,303.042,55.325,304.945,55.325z" fill="#333333"/><path d="M307.657,292.296c-2.257-31.549-23.55-42.082-34.494-43.244c-0.471-0.05-0.935-0.323-1.393-0.296   c-0.12-0.005-0.238-0.299-0.359-0.299h-38.908c-0.257,0-0.346,0.298-1.009,0.322c0.017,0.002,0.03,0.143,0.015,0.145   c-0.071,0.008-0.076,0.088-0.146,0.098c-11.026,1.316-31.924,11.971-34.161,43.24c-2.188,30.585-3.84,53.424-3.856,53.752   c-0.303,5.98,3.708,11.118,8.951,11.463c0.186,0.012,0.375,0.022,0.56,0.022c5,0,9.192-4.452,9.484-10.22   c0.016-0.326,1.672-22.888,3.842-53.22c0.565-7.894,2.85-13.769,6.962-17.87l2.607,207.947c0,6.25,4.569,11.316,10.045,11.316   c5.478,0,10.046-5.714,10.046-11.964l3.591-113.032h5.665l3.209,113.094c0,6.408,4.421,11.928,10.037,11.928   c5.616,0,10.037-5.033,10.037-11.442l2.317-208.974c3.724,3.313,7.305,9.076,8.012,18.958c2.168,30.322,3.826,52.915,3.842,53.24   c0.292,5.769,4.482,10.232,9.481,10.232c0.185,0,0.37-0.001,0.556-0.013c5.241-0.346,9.245-5.471,8.942-11.451   C311.514,345.701,309.845,322.882,307.657,292.296z" fill="#333333"/><path d="M251.889,240.905c13.132,0,20.526-22.111,20.526-33.448c0-11.336-9.19-20.525-20.526-20.525   c-11.336,0-20.526,9.189-20.526,20.525C231.362,218.794,238.757,240.905,251.889,240.905z" fill="#333333"/></g></svg>