<?xml version="1.0" ?><svg enable-background="new 0 0 500 500" id="Layer_1" version="1.1" viewBox="0 0 500 500" xml:space="preserve" xmlns="http://www.w3.org/2000/svg" xmlns:xlink="http://www.w3.org/1999/xlink"><path d="M463.621,477.604c-0.137-0.522-13.73-52.698-20.132-92.075c-3.43-21.098-20.347-40.08-50.281-56.419  c-27.5-15.01-58.743-23.868-74.919-27.812c-14.146-3.449-23.557-8.723-25.82-14.468c-1.802-4.575,1.279-9.351,1.311-9.398  l-0.084,0.122l-0.965-0.679c1.534-1.216,3.035-2.497,4.493-3.856c17.292-6.971,29.006-17.015,36.686-26.074  c10.591-12.491,15.356-25.101,17.267-31.564l8.939-4.227c0.043-0.013,0.084-0.033,0.126-0.047c0.272-0.09,0.54-0.187,0.801-0.299  c0.111-0.047,0.218-0.106,0.327-0.157c0.191-0.09,0.382-0.179,0.566-0.281c0.129-0.071,0.253-0.153,0.379-0.23  c0.159-0.098,0.319-0.194,0.473-0.3c0.125-0.086,0.244-0.181,0.366-0.274c0.151-0.115,0.3-0.23,0.444-0.353  c0.11-0.094,0.216-0.194,0.323-0.294c0.149-0.139,0.294-0.281,0.434-0.429c0.048-0.051,0.101-0.095,0.149-0.147  c0.051-0.056,0.093-0.116,0.142-0.173c0.12-0.138,0.236-0.28,0.348-0.424c0.094-0.12,0.185-0.241,0.273-0.365  c0.099-0.14,0.193-0.283,0.285-0.429c0.085-0.135,0.17-0.27,0.248-0.408c0.081-0.142,0.156-0.288,0.229-0.434  c0.074-0.146,0.146-0.292,0.212-0.44c0.066-0.148,0.125-0.298,0.183-0.449c0.059-0.153,0.117-0.305,0.168-0.46  c0.051-0.153,0.095-0.308,0.138-0.464c0.044-0.16,0.087-0.319,0.124-0.48c0.034-0.153,0.063-0.308,0.09-0.464  c0.03-0.171,0.057-0.341,0.078-0.513c0.018-0.149,0.032-0.299,0.043-0.45c0.014-0.183-0.028-0.366-0.024-0.55  c0.002-0.075-0.041-0.148-0.041-0.223v-33.701c0-20.108-8-38.82-23-52.082V101.54C344,63.138,312.338,32,273.936,32H222.12  C183.718,32,152,63.138,152,101.54v14.536c-15,14.651-23,32.069-23,51.839v33.701c0,0.092-0.013,0.182-0.01,0.274  c0.005,0.181,0.001,0.362,0.015,0.542c0.013,0.156,0.024,0.31,0.044,0.463c0.022,0.168,0.043,0.335,0.074,0.501  c0.029,0.16,0.06,0.319,0.097,0.477c0.036,0.158,0.076,0.314,0.12,0.47c0.045,0.159,0.093,0.316,0.145,0.471  c0.051,0.153,0.107,0.303,0.166,0.454c0.06,0.153,0.123,0.304,0.19,0.453c0.066,0.147,0.137,0.292,0.21,0.437  c0.075,0.147,0.154,0.292,0.236,0.435c0.079,0.138,0.162,0.274,0.248,0.409c0.093,0.145,0.19,0.287,0.29,0.427  c0.089,0.123,0.179,0.246,0.274,0.366c0.115,0.145,0.234,0.286,0.357,0.425c0.059,0.067,0.11,0.138,0.172,0.204  c0.039,0.042,0.083,0.078,0.122,0.119c0.126,0.131,0.258,0.257,0.392,0.381c0.113,0.105,0.225,0.211,0.342,0.311  c0.124,0.105,0.253,0.204,0.382,0.303c0.134,0.103,0.266,0.207,0.404,0.302c0.124,0.086,0.252,0.164,0.38,0.244  c0.148,0.093,0.295,0.187,0.447,0.271c0.134,0.074,0.272,0.14,0.409,0.208c0.151,0.075,0.3,0.152,0.454,0.219  c0.15,0.065,0.305,0.121,0.458,0.179c0.147,0.056,0.293,0.114,0.443,0.162c0.028,0.009,0.055,0.022,0.083,0.031l13.899,6.376  c1.807,7.002,5.752,18.053,14.146,29.024c9.651,12.613,21.799,20.906,34.576,26.261c0.809,0.759,1.63,1.495,2.463,2.21  c0.384,1.126,0.966,2.205,1.774,3.174c0.032,0.038,3.072,4.119,1.821,7.985c-0.874,2.699-5.254,9.577-27.017,15.14  c-20.051,5.125-49.296,14.134-74.748,27.953c-29.985,16.28-46.924,35.206-50.346,56.251c-6.398,39.355-19.996,91.552-20.132,92.075  c-1.396,5.343,1.803,10.807,7.146,12.204c0.848,0.222,1.698,0.328,2.536,0.328c4.439,0,8.493-2.978,9.668-7.473  c0.494-1.889,10.709-41.102,17.671-77.81c2.738,17.446,10.448,45.629,31.208,35.249c29.389-14.694,22.839,6.243,18.062,15.602  C106.226,480.081,84.953,488,84.953,488h96.261c0,0-24.657-25.503-16.788-37.515c8.414-12.844,15.059-16.819,47.041-6.446  c31.982,10.372,27.66-13.817,8.644-23.325c-19.016-9.508-40.309-1.232-42.038-17.036c-1.729-15.804-20.431-19.989-31.62-16.671  c-17.961,5.326-23.152,35.943-37.847,21c-11.361-11.553-12.382-39.996-7.07-54.708c3.265-2.125,6.867-4.277,10.864-6.446  c1.957-1.063,3.947-2.092,5.955-3.094c4.15,4.801,6.335,11.618,0.728,20.601c-12.598,20.186,15.062,18.711,21.113,0  c3.585-11.085,10.706-17.815,15.917-21.461l-2.561,8.671c-0.471,1.595-0.118,3.319,0.941,4.601c1.058,1.282,2.683,1.955,4.341,1.792  l25.032-2.446l-6.316,16.316c-0.94,2.428,0.14,5.17,2.483,6.305l62.034,30.046c0.309,0.15,0.934,0.259,0.934,0.341v71.607  c0,2.761,2.239,5,5,5s5-2.239,5-5v-47.675c1-5.002,3.221-9.808,6.36-14.358c3.549,1.717,9.039,3.762,15.508,4.103  c11.455,0.603,20.225,11.907,5.152,13.113c-15.073,1.206-17.323,21.993-2.808,27.21C307.084,473.265,295.375,488,295.375,488h33.161  c3.819-20-1.813-22.809-13.268-43.911c-11.455-21.102-2.793-19.827,3.358-36.106c4.301-11.384-2.746-22.496-7.375-28.161  c4.2-1.976,6.877-3.058,7.001-3.108c1.298-0.52,2.32-1.557,2.816-2.865s0.422-2.762-0.205-4.013l-7.714-15.389l35.071-3.863  c2-0.22,3.674-1.618,4.246-3.547s-0.067-4.014-1.624-5.289l-19.878-16.293c12.853,3.842,25.866,8.536,37.931,13.967  c0.312,7.24-1.202,18.565-11.79,26.545c-16.724,12.605-30.432,38.007,0,24.253c30.432-13.754,41.239,14.019,24.537,13.466  c-16.701-0.554-51.758,13.148-42.58,32.796c9.178,19.648,33.236,28.52,33.236,51.52h29.456c0,0-1.46-37.63,37.411-25.816  c2.832,11.695,4.892,19.629,5.107,20.452c1.175,4.496,5.229,7.487,9.668,7.486c0.837,0,1.688-0.099,2.536-0.321  C461.819,488.405,465.018,482.947,463.621,477.604z M198.156,239.169c-10.574-20.096-14.734-45.071-16.326-63.752l0.142,0.097  c2.599-2.415,5.982-3.515,9.528-3.515h112.244c3.489,0,6.832,1.063,9.414,3.41l0.955,0.753  c-1.632,18.609-5.821,43.271-16.328,63.175c-3.443,6.522-7.299,12.015-11.586,16.567c-11.169,3.923-23.973,5.907-38.389,5.907  c-15.578,0-28.115-2.388-38.21-6.142C205.369,251.134,201.56,245.639,198.156,239.169z M251.163,135.292  c16.629,0,37.646-0.995,54.369-2.207c0.185,4.479-0.677,11.915-7.659,18.915H216.76c-2.887-5-4.856-10.713-1.868-17.637  C227.667,135.031,240.641,135.292,251.163,135.292z M347,167.915v11.096l-12.965-11.833c1.498-3.976,2.006-9.92,1.315-14.622  c-0.654-4.447,1.114-8.661,3.394-12.03C344.106,148.546,347,157.992,347,167.915z M227.097,52c0.422,2,1.22,4.821,2.579,7.338  c4.718,8.738,11.387,13.95,23.905,13.372c12.518-0.578,25.791-3.931,33.745,5.218c7.954,9.149,10.247-7.343,3.308-12.094  c-6.939-4.751-21.417-3.911-30.178-10.111c-1.834-1.298-2.96-2.722-3.604-3.722h17.085c19.799,0,36.921,11.601,44.885,28.406  c-4.368,0.054-8.597,2.435-9.226,8.729c-1.011,10.124-14.079,16.844-27.702,13.318c-8.636-2.236-9.132-8.997-15.245-13.888  c-6.113-4.891-12.273-1.217-13.179,6.661c-0.75,6.522-0.604,13.815,3.188,20.024c-1.881,0.028-3.718,0.043-5.495,0.043  c-3.394,0-7.078-0.055-10.949-0.153c-6.82-8.902-27.937-21.278-24.967-28.976c4.788-12.409,4.476-29.742-10.287-31.156  C210.311,53.031,216.091,52,222.12,52H227.097z M179.356,75.954c1.319,0.342,15.311,4.282,9.485,17.523  c-2.756,6.263-4.617,13.068-3.743,18.78c-4.971-0.349-9.098-0.677-13.098-0.948v-9.768C172,92.187,174.841,83.431,179.356,75.954z   M162.452,134.444c7.32,3.025,23.027,10.239,25.56,17.282c-7.32,0.752-14.175,3.845-19.624,8.909L149,178.67v-10.755  C149,155.354,153.406,144.336,162.452,134.444z M248,291.99c8.603,0,16.695-1.316,24.218-3.885c0.285,1.823,0.757,3.704,1.479,5.627  c2.628,6.998,7.932,12.903,15.828,17.683c-10.505,5.129-26.142,11.173-41.534,11.173c-15.002,0-30.97-5.743-42.096-10.782  c9.295-5.25,15.259-11.75,17.755-19.464c0.435-1.344,0.748-2.663,0.958-3.951C231.896,290.776,239.712,291.99,248,291.99z   M188.524,371.146l7.591-19.59c0.627-1.619,0.373-3.446-0.677-4.829c-1.049-1.382-2.742-2.122-4.467-1.953l-25.728,2.514  l7.033-23.809c3.854-1.097,7.327-2.024,10.281-2.779c3.25-0.831,6.283-1.742,9.165-2.716L243,385.482v12.051L188.524,371.146z   M304.911,345.295c-1.627,0.179-3.063,1.143-3.845,2.581c-0.782,1.438-0.811,3.167-0.078,4.63l8.546,17.076  C297.828,374.853,269,389.398,253,409.956v-24.548l48.965-68.146c1.712,0.623,3.521,1.207,5.376,1.766l27.965,22.919  L304.911,345.295z M383.58,362.344c-4.581-5.216-1.414-10.705,2.157-14.463c14.234,8.018,25.898,17.206,32.497,27.308  C404.948,368.798,388.278,367.693,383.58,362.344z M397.629,431.965c-0.448-10.878,19.626-9.946,30.887-17.338  c1.408,6.975,2.891,13.912,4.361,20.543C420.792,443.988,397.992,440.775,397.629,431.965z" fill="#474747"/></svg>