<?xml version="1.0" ?><!DOCTYPE svg  PUBLIC '-//W3C//DTD SVG 1.1//EN'  'http://www.w3.org/Graphics/SVG/1.1/DTD/svg11.dtd'><svg enable-background="new 0 0 60 60" id="Слой_1" version="1.1" viewBox="0 0 60 60" xml:space="preserve" xmlns="http://www.w3.org/2000/svg" xmlns:xlink="http://www.w3.org/1999/xlink"><path d="M55.01,27.104c-0.706-0.327-1.537-0.217-2.132,0.283l-3.462,2.916l-2.75-2.316V7.75c0-1.104-0.896-2-2-2h-37  c-1.104,0-2,0.896-2,2v40.5c0,3.722,3.028,6.75,6.75,6.75h37c3.722,0,6.75-3.028,6.75-6.75V28.917  C56.167,28.139,55.715,27.432,55.01,27.104z M9.667,48.25V9.75h33v38.5c0,0.979,0.209,1.909,0.586,2.75h-2.438  c-0.919-0.684-1.523-1.769-1.523-3v-7.5c0-0.553-0.448-1-1-1h-24.25c-0.552,0-1,0.447-1,1V48c0,1.1,0.316,2.125,0.854,3h-1.479  C10.9,51,9.667,49.767,9.667,48.25z M16.565,51c-0.919-0.684-1.523-1.769-1.523-3v-6.5h22.25V48c0,1.1,0.316,2.125,0.854,3H16.565z   M52.167,48.25c0,1.517-1.234,2.75-2.75,2.75s-2.75-1.233-2.75-2.75V33.216l1.462,1.231c0.744,0.627,1.832,0.627,2.576,0  l1.462-1.231V48.25z M38.292,37.562h-24.25c-0.552,0-1-0.447-1-1V29.75c0-0.553,0.448-1,1-1h24.25c0.552,0,1,0.447,1,1v6.812  C39.292,37.114,38.844,37.562,38.292,37.562z M15.042,35.562h22.25V30.75h-22.25V35.562z M36.729,24.604  c-1.597,0-2.896-1.299-2.896-2.896c0-0.553,0.448-1,1-1s1,0.447,1,1c0,0.494,0.402,0.896,0.896,0.896  c0.494,0,0.896-0.401,0.896-0.896c0-0.272-0.122-0.526-0.333-0.698l-2.083-1.684c-0.572-0.462-0.9-1.148-0.9-1.884  c0-1.335,1.086-2.422,2.422-2.422c1.335,0,2.421,1.087,2.421,2.422c0,0.553-0.448,1-1,1s-1-0.447-1-1  c0-0.232-0.189-0.422-0.421-0.422s-0.422,0.189-0.422,0.422c0,0.128,0.057,0.248,0.157,0.328l2.083,1.685  c0.684,0.553,1.077,1.374,1.077,2.253C39.625,23.305,38.326,24.604,36.729,24.604z M31.805,24.604c-0.426,0-0.811-0.272-0.948-0.684  l-0.947-2.842l-0.947,2.842c-0.147,0.442-0.583,0.718-1.047,0.679c-0.465-0.046-0.836-0.407-0.894-0.871l-0.948-7.583  c-0.068-0.548,0.32-1.048,0.868-1.116c0.539-0.063,1.048,0.32,1.116,0.868l0.401,3.208l0.501-1.505  c0.136-0.408,0.518-0.684,0.949-0.684c0.43,0,0.813,0.275,0.949,0.684l0.502,1.506l0.401-3.209c0.068-0.548,0.569-0.932,1.116-0.868  c0.548,0.068,0.937,0.568,0.868,1.116l-0.948,7.583c-0.058,0.464-0.429,0.825-0.894,0.871  C31.871,24.602,31.838,24.604,31.805,24.604z M17.833,24.604c-0.372,0-0.722-0.208-0.894-0.553l-1.897-3.794v3.347  c0,0.553-0.448,1-1,1s-1-0.447-1-1v-7.583c0-0.464,0.319-0.866,0.77-0.974c0.455-0.104,0.917,0.111,1.125,0.526l1.897,3.794v-3.347  c0-0.553,0.448-1,1-1s1,0.447,1,1v7.583c0,0.464-0.319,0.866-0.77,0.974C17.986,24.595,17.909,24.604,17.833,24.604z M24.465,24.604  h-3.792c-0.552,0-1-0.447-1-1v-7.583c0-0.553,0.448-1,1-1h3.792c0.552,0,1,0.447,1,1s-0.448,1-1,1h-2.792v5.583h2.792  c0.552,0,1,0.447,1,1S25.018,24.604,24.465,24.604z M22.569,19.864h-1.896c-0.552,0-1-0.447-1-1s0.448-1,1-1h1.896  c0.552,0,1,0.447,1,1S23.122,19.864,22.569,19.864z"/></svg>