<?xml version="1.0" ?><!DOCTYPE svg  PUBLIC '-//W3C//DTD SVG 1.1//EN'  'http://www.w3.org/Graphics/SVG/1.1/DTD/svg11.dtd'><svg enable-background="new 0 0 504.768 500" height="500px" id="Layer_1" version="1.1" viewBox="0 0 504.768 500" width="504.768px" xml:space="preserve" xmlns="http://www.w3.org/2000/svg" xmlns:xlink="http://www.w3.org/1999/xlink"><g><polygon fill="#333333" points="176.039,170.629 172.147,184 179.827,184  "/><path d="M149.201,169h-5.816v9h5.816c1.429,0,2.54-0.118,3.334-0.933c0.794-0.815,1.19-1.961,1.19-3.729   s-0.396-2.742-1.19-3.495S150.63,169,149.201,169z" fill="#333333"/><path d="M229.342,261.576c3.605-4.334,7.205-8,10.49-11.021c-5.075,1.05-10.038,2.592-14.852,4.628   c-9.528,4.03-18.088,9.802-25.441,17.154c-1.028,1.029-2.023,2.085-2.99,3.161c3.628,2.042,9.911,5.134,18.721,7.891   C219.558,274.517,224.641,267.227,229.342,261.576z" fill="#333333"/><path d="M236.85,388.74c5.141,6.513,10.535,11.57,14.535,15.105v-35.643c-11,0.244-18.502,1.379-25.802,2.939   C228.682,377.211,232.383,383.083,236.85,388.74z" fill="#333333"/><path d="M229.272,395.074c-4.499-5.664-9.35-12.85-13.513-21.459c-9.476,2.894-15.931,6.284-19.471,8.446   c1.048,1.178,2.129,2.331,3.25,3.453c7.354,7.353,15.913,13.125,25.441,17.155c5.038,2.131,10.239,3.721,15.562,4.771   C237.056,404.098,233.168,399.978,229.272,395.074z" fill="#333333"/><path d="M387.456,73h-10.071V30.483C377.385,16.984,368.688,6,357.018,6h-1.537c0,0-233.523,65.79-234.997,66.332   c-13.16,0.354-24.099,11.265-24.099,26.648v372.077c0,11.328,11.634,22.942,25.102,22.942h265.97   c13.468,0,24.929-11.614,24.929-22.942V98.98C412.385,83.374,400.924,73,387.456,73z M355.421,29.756   c0.052,0.299-0.036,0.348-0.036,0.728V73H203.396L355.421,29.756z M342.583,183.108c0.577,1.16,0.802,2.932,0.802,5.313v2.282   c0,1.553-0.106,2.605,0.003,3.158c0.167,0.876,0.997,1.522,0.997,1.937V196h-6.468c-0.19,0-0.325-1.034-0.407-1.495   c-0.162-0.953-0.252-1.766-0.265-2.765l-0.04-3.077c-0.026-2.166-0.356-3.233-0.991-3.956S334.389,184,332.645,184h-6.26v12h-6v-34   h14.359c2.05,1,3.627,0.674,4.73,1.212c1.104,0.538,2.041,1.497,2.808,2.542c0.634,0.86,1.137,1.898,1.508,2.942   c0.37,1.046,0.556,2.278,0.556,3.615c0,1.613-0.359,3.223-1.078,4.781c-0.72,1.561-1.938,2.673-3.592,3.318   C341.059,181.042,342.007,181.948,342.583,183.108z M313.396,179.615c0,6.103-1.513,10.774-4.537,14.018   c-2.265,2.644-5.539,3.965-9.825,3.965s-7.561-1.321-9.826-3.965c-3.037-3.243-4.556-7.915-4.556-14.018   c0-6.225,1.519-10.896,4.556-14.017c2.266-2.644,5.54-3.965,9.826-3.965s7.561,1.321,9.825,3.965   C311.884,168.719,313.396,173.391,313.396,179.615z M278.663,173.438c0,4.011-0.878,7.13-2.633,8.789   c-1.756,1.66-4.263,2.773-7.521,2.773h-6.125v11h-7v-34h13.531c2.969,0,5.335,1.212,7.1,2.963   C277.78,166.716,278.663,169.764,278.663,173.438z M242.068,184.642c-0.876-0.6-2.264-1.13-4.164-1.591l-3.245-0.807   c-3.192-0.8-5.384-1.668-6.576-2.605c-2.021-1.567-3.031-4.02-3.031-7.354c0-3.042,0.987-5.571,2.965-7.585   c1.978-2.013,4.881-3.02,8.711-3.02c3.198,0,5.928,1.054,8.187,2.951c2.258,1.898,3.442,5.369,3.552,8.369h-6.021   c-0.111-2-0.917-3.601-2.419-4.462c-1.002-0.567-2.246-0.905-3.732-0.905c-1.655,0-2.976,0.343-3.963,1.082   c-0.988,0.736-1.48,1.754-1.48,3.075c0,1.215,0.486,2.114,1.459,2.714c0.627,0.4,1.954,0.865,3.984,1.403l5.262,1.405   c2.307,0.613,4.035,1.436,5.187,2.465c1.787,1.6,2.681,3.911,2.681,6.939c0,3.104-1.059,5.683-3.177,7.734   c-2.117,2.052-5.109,3.077-8.975,3.077c-3.947,0-7.053-1.092-9.315-3.113c-2.261-2.02-3.392-4.415-3.392-8.415h5.98   c0.193,2,0.575,2.795,1.143,3.562c1.038,1.398,2.817,2.139,5.338,2.139c1.509,0,2.734-0.164,3.677-0.533   c1.785-0.707,2.679-2.011,2.679-3.932C243.38,186.115,242.942,185.256,242.068,184.642z M212.197,184.642   c-0.876-0.6-2.264-1.13-4.164-1.591l-3.246-0.807c-3.191-0.8-5.383-1.668-6.575-2.605c-2.021-1.567-3.031-4.02-3.031-7.354   c0-3.042,0.987-5.571,2.965-7.585c1.977-2.013,4.881-3.02,8.711-3.02c3.198,0,5.927,1.054,8.186,2.951   c2.259,1.898,3.443,5.369,3.553,8.369h-6.021c-0.111-2-0.918-3.601-2.419-4.462c-1.002-0.567-2.246-0.905-3.732-0.905   c-1.655,0-2.977,0.343-3.964,1.082c-0.987,0.736-1.479,1.754-1.479,3.075c0,1.215,0.485,2.114,1.459,2.714   c0.627,0.4,1.953,0.865,3.984,1.403l5.262,1.405c2.307,0.613,4.035,1.436,5.187,2.465c1.786,1.6,2.681,3.911,2.681,6.939   c0,3.104-1.06,5.683-3.177,7.734c-2.118,2.052-5.109,3.077-8.975,3.077c-3.948,0-7.054-1.092-9.315-3.113   c-2.261-2.02-3.392-4.415-3.392-8.415h5.98c0.193,2,0.574,2.795,1.143,3.562c1.038,1.398,2.817,2.139,5.338,2.139   c1.509,0,2.734-0.164,3.677-0.533c1.785-0.707,2.679-2.011,2.679-3.932C213.509,186.115,213.071,185.256,212.197,184.642z    M157.317,182.227c-1.756,1.66-4.262,2.773-7.521,2.773h-6.412v11h-6v-34h12.819c2.968,0,5.334,1.212,7.099,2.963   c1.766,1.753,2.647,4.775,2.647,8.448C159.95,177.422,159.072,180.567,157.317,182.227z M172.561,162h7.09l10.608,34h-6.795   l-1.979-6h-11.042l-2.033,6h-6.554L172.561,162z M258.556,418.665c-0.44,0.127-0.892,0.189-1.341,0.189   c-0.185,0-0.369-0.013-0.552-0.034c-0.181,0.021-0.36,0.033-0.542,0.033c-0.425,0-0.852-0.058-1.269-0.171   c-48.991-0.683-88.497-40.603-88.497-89.756c0-49.58,40.192-89.772,89.772-89.772s89.772,40.192,89.772,89.772   C345.9,377.694,307.013,417.379,258.556,418.665z M374.385,169h-10v27h-6v-27h-9v-7h25V169z" fill="#333333"/><path d="M336.34,169.386c-0.645-0.399-1.609-0.386-2.898-0.386h-7.057v9h6.883c1.34,0,2.345-0.334,3.015-0.702   c1.185-0.646,1.776-1.889,1.776-3.795C338.059,171.444,337.486,170.093,336.34,169.386z" fill="#333333"/><path d="M299.034,167.651c-2.481,0-4.462,1.037-5.94,3.111c-1.478,2.075-2.217,5.026-2.217,8.853   c0,3.827,0.739,6.778,2.217,8.853c1.479,2.075,3.459,3.112,5.94,3.112c2.482,0,4.452-1.037,5.91-3.112   c1.458-2.074,2.187-5.025,2.187-8.853c0-3.811-0.729-6.759-2.187-8.841S301.517,167.651,299.034,167.651z" fill="#333333"/><path d="M262.385,169v9h5.528c1.43,0,2.541-0.118,3.335-0.933c0.793-0.815,1.189-1.961,1.189-3.729   s-0.396-2.742-1.189-3.495c-0.794-0.753-1.905-0.844-3.335-0.844H262.385z" fill="#333333"/><path d="M205.175,327.713c0-13.373,2.502-25.142,6.237-35.262c-10.146-3.254-17.177-6.936-20.997-9.219   c-3.166,4.543-5.854,9.402-8.03,14.547c-4.17,9.859-6.285,20.34-6.285,31.147s2.115,21.287,6.285,31.147   c2.134,5.044,4.76,9.813,7.847,14.28c3.853-2.456,11.034-6.399,21.664-9.751C207.896,353.986,205.175,341.648,205.175,327.713z" fill="#333333"/><path d="M287.982,371.731c-7.643-1.762-17.598-3.104-26.598-3.476v36.853c4-3.547,9.914-9.037,15.701-16.368   C281.407,383.267,284.94,377.591,287.982,371.731z" fill="#333333"/><path d="M298.415,327.713c0-11.437-1.657-22.314-5.52-32.562c-8.779,2.148-20.511,3.744-31.511,4.012v59.343   c11,0.4,22.047,2.023,30.735,4.146C296.497,351.568,298.415,339.892,298.415,327.713z" fill="#333333"/><path d="M284.065,395.074c-3.783,4.762-7.56,8.788-10.969,12.078c4.841-1.045,9.578-2.537,14.179-4.482   c9.528-4.03,18.088-9.803,25.44-17.155c1.069-1.069,2.102-2.167,3.104-3.287c-3.552-2.015-9.79-5.119-18.591-7.901   C293.146,382.619,288.439,389.568,284.065,395.074z" fill="#333333"/><path d="M308.163,327.713c0,14.24-2.839,26.815-6.981,37.588c10.076,3.271,17.025,6.945,20.75,9.188   c3.127-4.505,5.784-9.319,7.939-14.414c4.17-9.86,6.284-20.34,6.284-31.147s-2.114-21.288-6.284-31.147   c-2.167-5.122-4.841-9.96-7.988-14.485c-3.66,2.328-10.275,5.968-19.948,9.18C305.665,302.589,308.163,314.35,308.163,327.713z" fill="#333333"/><path d="M277.027,268.088c-5.832-7.06-11.643-12.236-15.643-15.528v36.857c10-0.251,19.874-1.577,27.635-3.369   C285.836,279.791,281.742,273.797,277.027,268.088z" fill="#333333"/><path d="M236.759,268.088c-4.692,5.681-8.535,11.645-11.712,17.868c7.495,1.708,15.338,3.007,26.338,3.389v-35.61   C247.385,257.032,241.94,261.816,236.759,268.088z" fill="#333333"/><path d="M283.996,261.576c4.707,5.658,9.798,12.959,14.09,21.848c8.452-2.742,14.338-5.816,17.697-7.84   c-0.991-1.105-2.011-2.189-3.067-3.246c-7.353-7.353-15.912-13.124-25.44-17.154c-4.367-1.847-8.856-3.289-13.441-4.324   C277.03,253.821,280.511,257.387,283.996,261.576z" fill="#333333"/><path d="M214.92,327.713c0,11.961,2.292,23.438,6.514,34.345c8.361-1.926,17.951-3.334,29.951-3.603v-59.356   c-12-0.411-21.932-1.979-30.459-4.032C217.043,305.338,214.92,316.244,214.92,327.713z" fill="#333333"/></g></svg>