<?xml version="1.0" ?><!DOCTYPE svg  PUBLIC '-//W3C//DTD SVG 1.1//EN'  'http://www.w3.org/Graphics/SVG/1.1/DTD/svg11.dtd'><svg enable-background="new 0 0 48 48" id="Layer_1" version="1.1" viewBox="0 0 48 48" xml:space="preserve" xmlns="http://www.w3.org/2000/svg" xmlns:xlink="http://www.w3.org/1999/xlink"><g><rect fill="#010101" height="2.7" width="20.7" x="13.7" y="22.1"/><rect fill="#010101" height="13.2" width="12.2" x="17.9" y="24.3"/><g><g><path d="M40.6,15.5c-1.6,0-2.9,1.3-2.9,2.9v6.7c0,0.2,0,0.5,0.1,0.7c-0.9,0.3-1.9,0.8-2.8,1.6     c-2.1,1.9-3.1,4.9-3.1,8.8c0,0.7,0.6,1.3,1.3,1.3c0.7,0,1.3-0.6,1.3-1.3c0-3.2,0.8-5.5,2.3-6.9c1.2-1.1,2.7-1.3,3.4-1.4     c0.2,0,0.3,0.1,0.5,0.1c1.6,0,2.9-1.3,2.9-2.9v-6.7C43.5,16.8,42.2,15.5,40.6,15.5z" fill="#010101"/><g><path d="M38.8,17.9c-0.4,0.2-0.9,0.3-1.4,0.3h-6c-0.6,0-1.2,0.5-1.2,1.1c0,0.6,0.5,1.1,1.2,1.1h7.4V17.9z" fill="#010101"/></g><g><circle cx="39.4" cy="12.9" fill="#010101" r="2.3"/></g><g><g><rect fill="#010101" height="5.7" width="1.3" x="42" y="30.3"/></g><g><path d="M45.9,37.5c-0.1,0-0.2,0-0.2-0.1c-3.2-1.8-5.8,0-5.8,0c-0.2,0.1-0.5,0.1-0.7-0.1       C39,37,39,36.7,39.3,36.6c0.1-0.1,3.1-2.1,6.8,0c0.2,0.1,0.3,0.4,0.2,0.6C46.2,37.4,46,37.5,45.9,37.5z" fill="#010101"/></g><g><path d="M38.9,30.4h7.7c0.3,0,0.6-0.1,0.7-0.4c0.2-0.2,0.3-0.5,0.2-0.8C47,27,46,20.6,47.4,18.3       c0.3-0.5,0.1-1-0.3-1.3c-0.5-0.3-1-0.1-1.3,0.3c-1.7,2.7-0.8,8.6-0.4,11.2h-6.5c-0.5,0-1,0.4-1,1S38.3,30.4,38.9,30.4z" fill="#010101"/></g></g><path d="M30.1,21.5c-0.1,0-0.1,0-0.2-0.1c-0.2-0.1-0.2-0.3-0.1-0.5l2.6-4.2c0.1-0.2,0.3-0.2,0.5-0.1     c0.2,0.1,0.2,0.3,0.1,0.5l-2.6,4.2C30.4,21.4,30.2,21.5,30.1,21.5z" fill="#010101"/></g><g><path d="M7.4,15.5c1.6,0,2.9,1.3,2.9,2.9v6.7c0,0.2,0,0.5-0.1,0.7c0.9,0.3,1.9,0.8,2.8,1.6     c2.1,1.9,3.1,4.9,3.1,8.8c0,0.7-0.6,1.3-1.3,1.3c-0.7,0-1.3-0.6-1.3-1.3c0-3.2-0.8-5.5-2.3-6.9c-1.2-1.1-2.7-1.3-3.4-1.4     c-0.2,0-0.3,0.1-0.5,0.1c-1.6,0-2.9-1.3-2.9-2.9v-6.7C4.5,16.8,5.8,15.5,7.4,15.5z" fill="#010101"/><g><path d="M9.2,17.9c0.4,0.2,0.9,0.3,1.4,0.3h6c0.6,0,1.2,0.5,1.2,1.1c0,0.6-0.5,1.1-1.2,1.1H9.2V17.9z" fill="#010101"/></g><g><circle cx="8.6" cy="12.9" fill="#010101" r="2.3"/></g><g><g><rect fill="#010101" height="5.7" width="1.3" x="4.6" y="30.3"/></g><g><path d="M2.1,37.5c0.1,0,0.2,0,0.2-0.1c3.2-1.8,5.8,0,5.8,0c0.2,0.1,0.5,0.1,0.7-0.1C9,37,9,36.7,8.7,36.6       c-0.1-0.1-3.1-2.1-6.8,0c-0.2,0.1-0.3,0.4-0.2,0.6C1.8,37.4,2,37.5,2.1,37.5z" fill="#010101"/></g><g><path d="M9.1,30.4H1.5c-0.3,0-0.6-0.1-0.7-0.4c-0.2-0.2-0.3-0.5-0.2-0.8C1,27,2,20.6,0.6,18.3       c-0.3-0.5-0.1-1,0.3-1.3c0.5-0.3,1-0.1,1.3,0.3c1.7,2.7,0.8,8.6,0.4,11.2h6.5c0.5,0,1,0.4,1,1S9.7,30.4,9.1,30.4z" fill="#010101"/></g></g><path d="M17.9,21.5c0.1,0,0.1,0,0.2-0.1c0.2-0.1,0.2-0.3,0.1-0.5l-2.6-4.2c-0.1-0.2-0.3-0.2-0.5-0.1     c-0.2,0.1-0.2,0.3-0.1,0.5l2.6,4.2C17.6,21.4,17.8,21.5,17.9,21.5z" fill="#010101"/></g></g></g></svg>