<?xml version="1.0" ?><!DOCTYPE svg  PUBLIC '-//W3C//DTD SVG 1.1//EN'  'http://www.w3.org/Graphics/SVG/1.1/DTD/svg11.dtd'><svg enable-background="new 0 0 500 500" height="500px" id="Layer_1" version="1.1" viewBox="0 0 500 500" width="500px" xml:space="preserve" xmlns="http://www.w3.org/2000/svg" xmlns:xlink="http://www.w3.org/1999/xlink"><g><path d="M414.111,230H242.996c-0.063-29-0.212-54.239-0.528-56.684C241.012,162.062,234.54,152,222.523,152   c-0.157,0-0.296,0-0.435,0c-1.293,0-1.784,0-1.836,0c-0.086,0-0.164,0-0.257,0C207.507,152,201,163.043,201,174.088   c0,4.304,0,27.912,0,55.912h-32v-8h3.529c1.124,0,2.471-0.531,2.471-1.655v-2.004c0-1.123-1.348-2.341-2.471-2.341h-30.646   c-1.124,0-1.883,1.218-1.883,2.341v2.004c0,1.124,0.76,1.655,1.883,1.655H146v8H68.163C29.687,230-1.999,261.573-2,300.049   C-1.999,338.525,29.687,370,68.163,370h345.948C452.588,370,484,338.57,484,300.094v-0.068C484,261.549,452.588,230,414.111,230z    M150,222h15v8h-15V222z M445.842,331.824c-8.53,8.529-19.799,13.176-31.73,13.176H68.163c-11.932,0-23.2-4.646-31.73-13.176   c-8.53-8.53-13.228-19.773-13.228-31.705c0-11.931,4.698-23.28,13.228-31.811S56.231,255,68.163,255h345.948   c11.932,0,23.2,4.792,31.73,13.321c8.53,8.53,13.228,19.82,13.228,31.752C459.069,312.004,454.372,323.294,445.842,331.824z" fill="#333333"/><path d="M223.176,145.472c10.947,0,17.111-18.433,17.111-27.883s-7.661-17.111-17.111-17.111   s-17.111,7.661-17.111,17.111S212.229,145.472,223.176,145.472z" fill="#333333"/><path d="M201,327.083c0,0,0.37,8.499,8.524,8.499c5.577,0,8.368-3.523,8.389-8.07L220.997,265H201   C201,298,201,327.083,201,327.083z" fill="#333333"/><path d="M224.111,265c0.934,24,2.372,61.785,2.372,61.785c0.06,4.522,2.677,8.216,8.257,8.216   c8.093,0,8.26-8.362,8.26-8.362S243.051,297,243.037,265H224.111z" fill="#333333"/><path d="M307.432,169h80.616l-12.761,12.971c-4.633,4.635-4.633,12.253,0,16.888   c4.636,4.635,12.148,4.687,16.783,0.053l41.276-41.25l-41.539-41.526c-4.633-4.635-12.147-4.628-16.782,0.007   s-4.634,11.808,0,16.442L387.781,145h-80.35c-6.554,0-11.867,5.446-11.867,12C295.565,163.555,300.878,169,307.432,169z" fill="#333333"/><path d="M129,264.68v57.307c0,4.175,3.759,7.014,7.867,7.014H137v3.57c0,1.656,1.344,3.012,3,3.012s3-1.355,3-3.012   V329h28v3.57c0,1.656,1.344,3.012,3,3.012s3-1.355,3-3.012V329h0.821c4.107,0,7.179-2.839,7.179-7.014V264.83L129,264.68z" fill="#333333"/></g></svg>