<?xml version="1.0" ?><!DOCTYPE svg  PUBLIC '-//W3C//DTD SVG 1.1//EN'  'http://www.w3.org/Graphics/SVG/1.1/DTD/svg11.dtd'><svg enable-background="new 0 0 48 48" height="48px" id="Layer_1" version="1.1" viewBox="0 0 48 48" width="48px" xml:space="preserve" xmlns="http://www.w3.org/2000/svg" xmlns:xlink="http://www.w3.org/1999/xlink"><g><path d="M25.834,45.823c-0.466,0-0.881-0.33-0.971-0.804l-2.875-15.13H4.121L1.969,44.975c-0.077,0.54-0.583,0.915-1.119,0.839   c-0.542-0.077-0.917-0.577-0.84-1.119l2.272-15.934c0.069-0.487,0.487-0.851,0.979-0.851h19.545c0.476,0,0.884,0.339,0.973,0.807   l3.028,15.934c0.102,0.535-0.25,1.054-0.788,1.155C25.958,45.817,25.896,45.823,25.834,45.823z"/><path d="M47.011,34.765h-13.18c-0.547,0-0.989-0.442-0.989-0.989s0.442-0.99,0.989-0.99h12.189V13.323   c0-0.547,0.442-0.99,0.99-0.99c0.547,0,0.989,0.443,0.989,0.99v20.453C48,34.322,47.558,34.765,47.011,34.765z"/><path d="M40.422,44.765c-0.546,0-0.99-0.443-0.99-0.99v-9.243c0-0.547,0.444-0.99,0.99-0.99s0.989,0.443,0.989,0.99v9.243   C41.411,44.321,40.968,44.765,40.422,44.765z"/><path d="M45.042,44.765h-9.547c-0.547,0-0.989-0.443-0.989-0.99s0.442-0.989,0.989-0.989h9.547c0.546,0,0.989,0.442,0.989,0.989   S45.588,44.765,45.042,44.765z"/><path d="M28.033,2.176c-2.721,0-4.933,2.212-4.933,4.932c0,2.721,2.212,4.935,4.933,4.935s4.934-2.214,4.934-4.935   C32.967,4.388,30.754,2.176,28.033,2.176z"/><path d="M44.408,24.152l-5.646-10.719c-0.936-1.777-2.923-2.779-4.876-2.457c-0.982-0.234-2.057,0.104-2.74,0.866l-5.788,6.46   L17.76,19.57c-1.544,0.256-2.601,1.751-2.355,3.332c0.222,1.423,1.403,2.456,2.81,2.456c0.155,0,0.313-0.014,0.462-0.039   l8.572-1.43c0.63-0.103,1.213-0.426,1.643-0.907l2.645-2.95l2.814,5.341h-6.004c-0.864,0-1.671,0.395-2.212,1.077   c-0.535,0.673-0.747,1.546-0.582,2.396l2.614,13.568c0.262,1.362,1.436,2.351,2.793,2.351c0.184,0,0.373-0.02,0.563-0.059   c1.534-0.314,2.535-1.848,2.231-3.415L31.81,31.196h7.59c0.716,0.142,1.298,0.116,1.917-0.03c0.539-0.066,1.039-0.284,1.457-0.635   C44.866,29.175,45.588,26.39,44.408,24.152z"/><path d="M21.832,27.588h-8.951c-0.368,0-0.706-0.205-0.877-0.532L5.978,15.535c-0.253-0.484-0.065-1.083,0.418-1.336   c0.485-0.253,1.083-0.066,1.336,0.418l5.748,10.991h8.352c0.546,0,0.99,0.442,0.99,0.989S22.378,27.588,21.832,27.588z"/></g></svg>