<?xml version="1.0" ?><!DOCTYPE svg  PUBLIC '-//W3C//DTD SVG 1.1//EN'  'http://www.w3.org/Graphics/SVG/1.1/DTD/svg11.dtd'><svg enable-background="new 0 0 504.768 500" height="500px" id="Layer_1" version="1.1" viewBox="0 0 504.768 500" width="504.768px" xml:space="preserve" xmlns="http://www.w3.org/2000/svg" xmlns:xlink="http://www.w3.org/1999/xlink"><g><path d="M328.455,66.898c14.992,0,23.433-25.241,23.433-38.183S341.396,5.284,328.455,5.284   c-12.94,0-23.432,10.49-23.432,23.432S313.465,66.898,328.455,66.898z" fill="#333333"/><path d="M80.644,452.734c-4.604,4.604-4.604,12.138,0,16.741l22.062,22.062c4.604,4.604,12.138,4.604,16.741,0   l25.096-25.096C124.172,458.709,96,444.41,91.348,442.029L80.644,452.734z" fill="#333333"/><path d="M273.759,380.777c-3.761-1.498-24.378-6.096-24.383-6.098c-21.756-7.887-45.794-42.105-48.896-46.61   c-9.013-13.091-8.271-27.682-5.694-38.327c-3.575-0.461-6.915-0.747-9.669-0.734c-13.772,0.062-34.401,18.337-34.401,18.337   c-19.175,11.873-34.164,0.487-34.164,0.487l-76.646-55.767c-5.125-3.153-11.521,1.137-10.521,7.085v95.544   c0,2.646,2.927,4.84,5.478,5.652c9.435,3.003,32.107,12.236,37.641,32.703c7.946,29.389,28.964,37.006,28.964,37.006   s59.299,30.61,72.665,29.692c13.366-0.926,22.983-12.4,22.983-12.4s3.214,4.513,15.977,0.217   c12.761-4.297,14.811-13.774,14.811-13.774c5.367,0.778,14.373-2.041,14.373-2.041c17.03-8.14,11.973-19.159,11.973-19.159   c9.859,1.181,17.121-2.397,17.121-2.397C288.422,398.427,284.298,384.974,273.759,380.777z" fill="#333333"/><path d="M362.826,250.655l-0.247-70.885l-30.917,32.907c0,0,1.144,36.27,2.311,66.832L362.826,250.655z" fill="#333333"/><polygon fill="#333333" points="322.288,220.062 290.109,252.24 289.687,323.796 318.733,294.749  "/><path d="M451.654,93.562c6.19-0.374,10.906-5.695,10.533-11.886c-0.373-6.191-5.71-10.89-11.886-10.534   c0,0-95.946,4.406-106.388,4.353c-10.44-0.054-24.46,0.421-34.375-0.177c-9.916-0.599-103.768-3.592-103.768-3.592   c-5.88-0.351-10.912,4.116-11.266,9.984s4.116,10.912,9.984,11.266l86.479,13.971l-0.545,92.107l-64.33,64.331   c-12.703,12.702-12.703,33.489,0,46.192l0.832,0.832l-8.953,8.953c6.5,10.95,19.111,28.155,38.818,38.79l8.939-8.938l0.833,0.833   c6.351,6.352,14.724,9.527,23.096,9.527s16.745-3.176,23.097-9.527l136.21-136.211c12.703-12.702,12.703-33.489,0-46.191   l-40.47-40.471c-6.352-6.351-14.724-9.526-23.096-9.526c-8.334,0-16.665,3.148-23.006,9.44l-0.072-20.849L451.654,93.562z    M385.4,138.365c3.216,0,6.216,1.229,8.446,3.459l40.47,40.47c4.579,4.579,4.579,12.315,0,16.895l-136.21,136.21   c-2.231,2.23-5.231,3.46-8.447,3.46s-6.217-1.229-8.447-3.46l-40.47-40.47c-2.23-2.23-3.459-5.23-3.459-8.447   c0-3.216,1.229-6.216,3.459-8.447l136.211-136.21C379.184,139.594,382.184,138.365,385.4,138.365z" fill="#333333"/><path d="M336.651,349.729c0.037,0.966,0.057,1.482,0.057,1.482c0.096,7.25,4.286,13.35,13.231,13.35   c12.974,0,13.237-13.678,13.237-13.678l-0.096-27.583L336.651,349.729z" fill="#333333"/></g></svg>