<?xml version="1.0" ?><!DOCTYPE svg  PUBLIC '-//W3C//DTD SVG 1.1//EN'  'http://www.w3.org/Graphics/SVG/1.1/DTD/svg11.dtd'><svg enable-background="new 0 0 500 500" height="500px" id="Layer_1" version="1.1" viewBox="0 0 500 500" width="500px" xml:space="preserve" xmlns="http://www.w3.org/2000/svg" xmlns:xlink="http://www.w3.org/1999/xlink"><g><path d="M378.378,328h-0.096c0.062,0,0.096,0.124,0.096,0.124l-77.541-16.23c2.517-2.119,4.962-4.381,7.323-6.792   c13.926-14.212,24.557-32.584,31.123-53.647c5.674-2.334,10.857-5.837,15.234-10.368c8.156-8.44,12.648-19.553,12.648-31.288   c0-11.745-4.543-22.633-12.146-30.765c4.513-3.595,7.635-7.687,9.382-12.303c5.325-14.073-4.211-27.507-10.686-33.226   c-0.2-0.177-0.409-0.341-0.621-0.5l-2.342-9.896c18.687-3.658,31.232-8.445,35.928-18.556c3.25-6.999,2.046-15.159-3.577-24.253   c-7.96-12.874-27.19-27.966-50.187-39.388c-20.018-9.942-52.143-21.794-91.503-21.794c-69.261,0-129.48,36.137-142.164,62.044   c-3.322,6.786-3.44,13.797-0.343,20.277c6.081,12.72,23.569,19.852,34.028,23.092l-1.828,10.85   c-1.657,1.613-3.927,4.051-6.02,7.077c-7.328,10.594-6.522,19.41-4.558,24.94c1.702,4.789,4.863,8.97,9.509,12.593   c-7.524,7.972-12.056,18.807-12.056,30.466c0,12.072,4.729,23.356,13.314,31.785c5.57,5.468,12.349,9.316,19.744,11.31   c6.593,20.187,16.963,37.805,30.422,51.542c2.505,2.556,5.104,4.945,7.783,7.173l-75.754,15.848c0,0,0.032-0.115,0.096-0.115   h-0.096L54.796,430.74c0,0,74.871,58.577,189.956,58.577s193.602-58.678,193.602-58.678L378.378,328z M221.746,112l10.312,8.613   l10.517-8.541l10.518,8.553L263.404,112h37.752l-14.893,10h-20.605l-5.99,6.304l17.361,0.131L264.213,138H250.27l-7.695,7.811   L234.881,138h-13.943l-12.817-9.693l17.362,0.03L219.491,122h-20.604l-14.894-10H221.746z M143.807,151h77.689   c9.225,7.233,20.738,10.623,20.738,10.623s11.387-3.517,20.729-10.623h79.771c2,2.584,3.93,6.151,2.951,8.683   c-1.246,3.225-12.146,19.312-104.569,19.312c-92.454,0-101.056-16.405-101.731-18.276C138.441,158.114,141.176,153.915,143.807,151   z M166.582,234.694c-1.172,0.169-2.368,0.427-3.589,0.427c-13.812,0-25.009-10.641-25.009-24.454c0-9.022,4.786-17.3,11.948-20.996   c1.206,0.378,2.441,0.748,3.722,1.103c19.692,5.455,49.118,8.221,87.461,8.221c42.984,0,74.18-3.303,94.66-10.174   c6.854,4.463,11.391,12.192,11.391,20.979c0,13.508-10.712,24.531-24.104,25.008c-10.324,45.449-41.435,78.508-78.212,78.508   C208.004,313.314,176.852,280.266,166.582,234.694z M183.753,333.683l30.345-6.435c0.391,0.157,0.779,0.318,1.172,0.469   l11.949,17.569l-32.642,22.938L183.753,333.683z M223.172,459.469l-25.455-81.228l35.126-24.685l4.186,6.153L223.172,459.469z    M265.828,462.779l-14.304-102.99l3.944-5.677l36.52,23.322L265.828,462.779z M261.179,345.893l12.423-17.882   c0.882-0.331,1.761-0.673,2.635-1.034l29.318,6.2l-10.524,34.334L261.179,345.893z M368.467,418.601L358.621,426H347.91l-5.91,6   l-5.91-6h-10.711l-9.846-7.399l13.337,0.07L324.268,414H308.44L297,406h29l7.922,6.588L342,406l8.078,6.588L358,406h29l-11.44,8   h-15.827l-4.603,4.671L368.467,418.601z" fill="#333333"/><circle cx="200.905" cy="215.671" fill="#333333" r="11.817"/><circle cx="284.245" cy="215.671" fill="#333333" r="11.817"/><path d="M211.938,264.047c0.471,2.231,2.717,15.143,33.006,15.143c15.012,0,24.854-2.713,29.252-8.061   c2.898-3.527,2.422-6.879,2.295-7.516c-0.428-2.18-2.547-3.599-4.723-3.168c-2.18,0.429-3.598,2.543-3.168,4.723   c0,0-0.441,0.638-0.618,0.853c-1.267,1.541-6.048,5.124-23.038,5.124c-22.9,0-25.031-8.174-25.051-8.256   C219.565,257.765,211.048,258.742,211.938,264.047z" fill="#333333"/></g></svg>