<?xml version="1.0" ?><!DOCTYPE svg  PUBLIC '-//W3C//DTD SVG 1.1//EN'  'http://www.w3.org/Graphics/SVG/1.1/DTD/svg11.dtd'><svg enable-background="new 0 0 500 500" height="500px" id="Layer_1" version="1.1" viewBox="0 0 500 500" width="500px" xml:space="preserve" xmlns="http://www.w3.org/2000/svg" xmlns:xlink="http://www.w3.org/1999/xlink"><g><path d="M177.443,344.466c-2.971-2.97-7.486-3.27-10.19-0.565c-2.711,2.71-2.409,7.225,0.562,10.194l5.603,5.603   c2.97,2.97,7.486,3.274,10.196,0.563c2.705-2.705,2.402-7.222-0.567-10.192L177.443,344.466z" fill="#333333"/><path d="M149.428,316.45c-2.971-2.97-7.487-3.271-10.191-0.566c-2.711,2.71-2.408,7.225,0.562,10.195l5.604,5.604   c2.97,2.97,7.484,3.272,10.195,0.562c2.705-2.705,2.403-7.221-0.566-10.191L149.428,316.45z" fill="#333333"/><path d="M205.46,372.483c-2.97-2.97-7.485-3.271-10.19-0.565c-2.711,2.71-2.408,7.225,0.562,10.194l5.603,5.603   c2.971,2.97,7.484,3.271,10.195,0.562c2.704-2.705,2.404-7.221-0.566-10.19L205.46,372.483z" fill="#333333"/><path d="M483.335,145.386L354.107,16.158c-9.375-9.375-25.004-9.453-34.344-0.112L13.548,322.261   c-9.34,9.34-9.265,24.971,0.11,34.346l34.203,34.203c5.819,5.819,14.905,6.604,21.476,1.99c10.641-7.47,25.111-6.229,34.351,3.009   c9.238,9.238,10.459,23.733,2.99,34.372c-4.616,6.573-3.811,15.636,2.008,21.453l34.201,34.201   c9.379,9.379,25.012,9.457,34.352,0.117l90.51-90.51l26.325-26.325l189.381-189.381   C492.794,170.396,492.715,154.765,483.335,145.386z M469.699,165.981l-235.371,235.37l-4.176-4.176   c-2.971-2.97-7.488-3.272-10.193-0.567c-2.709,2.71-2.406,7.226,0.564,10.196l4.176,4.176l-61.216,61.217   c-1.954,1.954-4.88,1.846-6.842-0.117l-32.969-32.968c11.176-17.711,8.933-41.627-6.364-56.923   c-15.295-15.296-39.211-17.538-56.922-6.363l-32.973-32.973c-1.963-1.962-2.065-4.88-0.111-6.834L88.52,274.8l2.362,2.362   c2.972,2.972,7.487,3.274,10.197,0.564c2.705-2.705,2.404-7.221-0.568-10.193l-2.362-2.362L333.52,29.801   c1.954-1.955,4.869-1.851,6.832,0.112L469.58,159.142C471.542,161.104,471.653,164.026,469.699,165.981z" fill="#333333"/><path d="M121.412,288.435c-2.97-2.97-7.486-3.271-10.191-0.566c-2.709,2.71-2.407,7.225,0.562,10.195l5.603,5.602   c2.972,2.972,7.487,3.274,10.197,0.564c2.704-2.705,2.403-7.221-0.568-10.193L121.412,288.435z" fill="#333333"/><path d="M336.713,148.5l-25.227,26.536l-77.085-15.388c-5.282-0.838-8.733,5.526-4.97,9.327   c0.027,0.028,0.138,0.136,0.166,0.163l50.211,38.966l-34.572,40.6c-0.68,0.767-1.688,1.158-2.707,1.047l-19.858-2.155   c-1.646-0.172-2.903,1.833-1.767,2.945c0.009,0.008,0.041,0.04,0.05,0.048l14.562,9.513c2.54,1.661,4.73,3.804,6.444,6.309   l9.718,14.203c0.009,0.008,0.018,0.017,0.025,0.025c1.137,1.111,3.164-0.144,2.953-1.785l-2.606-20.078   c-0.132-1.014,0.235-2.029,0.985-2.724l40.338-35.399l39.566,49.478c0.029,0.028,0.058,0.055,0.086,0.083   c3.886,3.675,10.224,0.132,9.265-5.13l-17.191-77.016l25.871-25.635c4.167-4.264,4.712-10.552,0.448-14.719   C347.153,143.547,340.879,144.237,336.713,148.5z" fill="#333333"/></g></svg>