<?xml version="1.0" ?><!DOCTYPE svg  PUBLIC '-//W3C//DTD SVG 1.1//EN'  'http://www.w3.org/Graphics/SVG/1.1/DTD/svg11.dtd'><svg enable-background="new 0 0 504.768 500" height="500px" id="Layer_1" version="1.1" viewBox="0 0 504.768 500" width="504.768px" xml:space="preserve" xmlns="http://www.w3.org/2000/svg" xmlns:xlink="http://www.w3.org/1999/xlink"><g><path d="M486.983,451.754L289.608,240h74.453c4.142,0,7.5-3.357,7.5-7.5s-3.358-7.5-7.5-7.5h-229   c-4.142,0-7.5,3.357-7.5,7.5s3.358,7.5,7.5,7.5h73.17L10.897,451.797C2.481,460.213,8.603,474,20.719,474h457.76   C490.596,474,497.852,462.623,486.983,451.754z M258.484,284l5.459,26.156l-29.923,0.241L239.372,284H258.484z M241.296,264.096   L244.552,247h8.776l3.227,17.135L241.296,264.096z M266.189,331l6.598,31.881l-47.234,0.241L231.849,331H266.189z M210.546,438   l11.768-54h52.737l11.187,54H210.546z" fill="#333333"/><path d="M82.529,120.533l36.977,2.877c-0.35,1.253-0.551,2.567-0.551,3.932c0,8.063,6.536,14.6,14.599,14.6   s14.599-6.537,14.599-14.6c0-0.297-0.026-0.588-0.044-0.881l34.388,2.603c1.552,31.622,30.913,56.821,66.894,56.795   c35.979-0.026,65.305-25.271,66.809-56.896l30.473-2.216c-0.008,0.198-0.03,0.394-0.03,0.595c0,8.062,6.536,14.6,14.6,14.6   c8.062,0,14.599-6.537,14.599-14.6c0-1.28-0.181-2.515-0.491-3.698l40.806-3.333c4.351-0.002,7.875-3.533,7.871-7.883   c-0.003-4.351-3.532-7.876-7.883-7.872l-110.43-14.488c-10.123-14.017-26.691-24.006-45.986-26.674l-5.263-30.367   c-0.001-2.294-2.335-4.026-5.211-4.026h-0.326c-2.876,0-5.207,1.739-5.205,4.033l-5.227,30.493   c-19.131,2.774-35.536,12.715-45.572,26.655L82.517,104.788c-4.351,0.004-7.875,3.525-7.871,7.877   C74.648,117.016,78.178,120.536,82.529,120.533z M206.119,102.735c1.21-4.995,6.242-8.062,11.239-6.855   c0.175,0.043,17.744,4.245,32.349,4.235c13.424-0.011,28.621-3.438,30.965-4.076c4.451-1.479,9.397,0.603,11.393,4.966   c2.138,4.677,0.081,10.201-4.595,12.34c-2.431,1.111-21.512,5.378-37.749,5.39c-16.873,0.014-35.944-4.563-36.747-4.758   C207.977,112.766,204.907,107.732,206.119,102.735z" fill="#333333"/></g></svg>