<?xml version="1.0" ?><!DOCTYPE svg  PUBLIC '-//W3C//DTD SVG 1.1//EN'  'http://www.w3.org/Graphics/SVG/1.1/DTD/svg11.dtd'><svg enable-background="new 0 0 500 500" height="500px" id="Layer_1" version="1.1" viewBox="0 0 500 500" width="500px" xml:space="preserve" xmlns="http://www.w3.org/2000/svg" xmlns:xlink="http://www.w3.org/1999/xlink"><g><path d="M289.199,296.73c-18.569,3.084-40.784,5.397-60.657,9.302c-7.229,0.521-59.766,5.287-88.15,35.063   c-30.524,32.021-87.984,33.69-87.984,33.69s31.425,18.967,57.113,14.777c0,0-4.531,6.812-7.757,8.259   c-3.193,1.432,39.399,15.894,74.761-40.171c-4.787,19.258-11.047,50.015-27.074,56.847c-20.375,8.685-17.369,18.037-18.37,24.383   c-1.003,6.347-13.361,26.054-9.021,29.06c4.344,3.006,12.36,19.373,16.766,22.045s24.986,4.342,25.321-2.004   c0.335-6.347-4.009-9.019-4.009-9.019c-32.732-9.353-18.37-23.047-17.033-34.069c1.334-11.022,38.411-19.373,39.747-16.701   c1.335,2.672,1.67,13.361-2.593,19.707c-4.264,6.346,32.986,13.694,35.66,22.379c2.672,8.685,11.355,6.681,25.719,8.351   c14.361,1.67,12.023-3.674,12.023-3.674c-3.673-14.697-19.706-11.69-20.708-11.69c-1.003,0-17.034-9.687-23.047-18.037   s-2.681-11.356,14.019-15.699c16.701-4.342,15.011-16.982,26.701-22.995c11.689-6.012,30.426-17.42,48.462-8.401   c5.851,2.926,12.009,4.439,17.661,5.157c-8.793-13.676-16.033-35.63-21.615-65.627C292.323,322.559,290.421,307.926,289.199,296.73   z" fill="#333333"/><path d="M469.938,253.559c-7.226-2.71-18.968-4.516-26.644-18.514c-7.675-13.999-16.707-9.935-22.578-17.159   c-5.869-7.226,1.355-20.772,0-25.043c-1.355-4.271-6.32,6.98-6.32,6.98s-1.807-4.516-4.064-6.773s-10.838,14.449-15.805,25.738   s-7.678,7.226-24.836,24.836c-10.277,10.549-19.426,21.899-29.57,31.156c-31.523,5.49-59.904,0.994-84.529-13.431   c-14.072-8.243-23.344-17.853-27.982-23.375c1.044-1.187,1.875-2.593,2.41-4.185c2.15-6.409-1.303-13.347-7.711-15.496   l-65.877-25.956l-4.56-5.375c-4.101-22.635-5.332-30.407-6.867-42.274c-3.073-23.741-12.241-41.878-37.152-45.573   c-0.329-0.049-3.577,0-3.772,0c-26.347,0-39.661,22.732-39.661,46.036c0,13.693,0,126.944,0,214.558   c14-1.19,26.37-6.088,41.514-14.07l2.408-52.015c0.244-3.792,2.55-4.122,2.946-0.393c0.034,0.673,0.788,23.699,1.747,48.723   c13.314-7.176,23.976-19.531,38.883-26.631l-0.471-75.754c-2.204-1.017-4.138-2.528-5.66-4.419l-56.128-72.831l55.883,56.596   c1.719,1.713,3.812,3.006,6.112,3.776l62.869,18.811c0.96,0.321,1.931,0.505,2.894,0.585c4.209,5.458,14.795,17.629,32.393,28.045   c14.756,8.732,36.597,17.32,65.438,17.32c9.318,0,19.37-0.898,30.145-2.977c13.733,23.58,35.656,58.142,57.38,79.545   c10.259-12.146,21.761-33.396,19.964-39.582c-2.133-7.348,0.236-17.064,2.607-22.99c2.369-5.925-2.607-21.567-1.185-22.989   c1.421-1.422,12.799,8.532,16.116,9.243c3.318,0.711,6.162-0.236,8.059-2.606c1.895-2.37,4.502,3.555,4.502,3.555   s-0.475,18.724,3.556,4.267c4.028-14.458-11.288-24.367-11.288-24.367c20.32,9.572,26.643-1.444,29.791-5.96   S477.161,256.268,469.938,253.559z" fill="#333333"/><path d="M371.165,461.594c-4.675-4.008,2.672-57.45,2.672-64.798c0-6.919,10.957-16.503,21.439-25.406   c-5.965-5.882-12.189-12.926-18.66-21.111c-22.383,17.035-50.518,20.776-62.385,21.595c4.332,13.653,9.608,25.165,15.945,31.851   c4.826-0.278,7.922-0.916,7.922-0.916c13.025,19.707,11.689,62.795,16.033,66.803c4.342,4.008,9.352,14.362,10.688,15.699   c1.336,1.336,20.708,0,27.054,0c6.348,0,4.008-6.681,2.338-13.361C392.542,465.269,375.841,465.603,371.165,461.594z" fill="#333333"/><path d="M64.418,462.92c0,0-0.31,17.93,16.892,17.93c11.768,0,17.61-7.909,17.655-17.501l2.979-51.723   c-15.1-3.287-30.526-9.346-37.526-12.842C64.418,435.392,64.418,462.92,64.418,462.92z" fill="#333333"/><path d="M125.103,39.237c23.906,5.404,40.87,4.277,43.906,1.562c3.035-2.717-0.81-3.814-0.81-3.814   c-13.157,0.9-21.659-3.604-21.659-3.604c-1.012-13.511-0.926-22.036-6.752-24.447c-6.424-2.659-19.529-6.189-28.638-6.865   c-9.11-0.676-19.31,3.748-25.696,11.377c-7.062,8.435-4.609,27.105-4.609,27.105S101.198,33.832,125.103,39.237z" fill="#333333"/><path d="M81.095,45.892c1.697,18.283,11.851,45.363,29.764,45.907c17.674,0.536,29.38-25.168,32.385-43.283   c-5.894-0.564-12.675-1.615-20.133-3.301C103.905,40.873,87.004,44.354,81.095,45.892z" fill="#333333"/><path d="M330.406,307.837c-3.188,0.183-5.565,0.809-5.565,0.809s-10.969,3.441-13.769,11.045   c0,0,2.567,1.418,4.72,3.016c-12.334,25.748,20.573,25.887,20.573,25.887s28.409-18.657,3.61-32.862   c0.973-2.499,2.378-5.063,2.378-5.063C338.904,308.012,334.108,307.626,330.406,307.837z M343.13,329.117   c0.127,3.83-4.723,9.143-8.855,12.357c-4.469-0.415-11.319-1.964-13.493-5.455c-1.685-2.703-0.209-7.087,1.325-10.289   c1.203-2.514,0.785-5.443-0.936-7.508c1.936-1.343,4.18-2.361,5.588-2.839c0.498-0.114,2.081-0.445,4.047-0.558   c0.781-0.045,1.527-0.05,2.229-0.016c-0.368,2.763,0.95,5.556,3.46,6.994C339.469,323.507,343.032,326.158,343.13,329.117z" fill="#333333"/></g></svg>