<?xml version="1.0" ?><!DOCTYPE svg  PUBLIC '-//W3C//DTD SVG 1.1//EN'  'http://www.w3.org/Graphics/SVG/1.1/DTD/svg11.dtd'><svg enable-background="new 0 0 500 500" height="500px" id="Layer_1" version="1.1" viewBox="0 0 500 500" width="500px" xml:space="preserve" xmlns="http://www.w3.org/2000/svg" xmlns:xlink="http://www.w3.org/1999/xlink"><g><circle cx="285.67" cy="214.671" fill="#333333" r="11.817"/><path d="M213.363,263.047c0.471,2.231,2.717,15.143,33.006,15.143c15.012,0,24.854-2.713,29.252-8.061   c2.898-3.527,2.422-6.879,2.295-7.516c-0.428-2.18-2.547-3.599-4.723-3.168c-2.18,0.429-3.598,2.543-3.168,4.723   c0,0-0.441,0.638-0.618,0.853c-1.267,1.541-6.048,5.124-23.038,5.124c-22.9,0-25.031-8.174-25.051-8.256   C220.99,256.765,212.473,257.742,213.363,263.047z" fill="#333333"/><circle cx="202.33" cy="214.671" fill="#333333" r="11.817"/><rect fill="#333333" height="15" width="63" x="132" y="407"/><path d="M350.652,392.102c0.75-0.804,1.253-1.309,1.253-1.309c-6.649-9.071-22.567-9.458-22.567-9.458   s-14.279,0.317-21.466,8.019c-0.411,0.439-0.797,0.902-1.157,1.393c0,0,2.875,2.881,5.131,5.843   c-26.39,29.569,17.432,42.459,17.432,42.459s13.261-4.091,20.998-12.383c6.531-6.999,9.129-16.988-3.494-30.04   C348.095,394.907,349.611,393.217,350.652,392.102z M347.062,414.108c0.018,0.802,0.072,3.242-3.111,6.654   c-3.992,4.278-10.63,7.497-14.71,9.112c-1.756-0.676-4.253-1.747-6.854-3.219c-5.521-3.125-9.09-6.704-10.052-10.078   c-1.084-3.793,0.923-8.58,5.964-14.229c2.552-2.86,2.897-7.024,0.946-10.242c3.789-1.486,8.131-2.029,10.08-2.115   c2.396,0.107,6.513,0.748,10.055,2.151c-2.017,3.324-1.575,7.646,1.183,10.496C344.744,406.963,346.991,410.928,347.062,414.108z" fill="#333333"/><path d="M378.943,333h-0.096c0.062,0,0.096-0.021,0.096-0.021L296.22,315.6c4.679-3.362,9.153-7.199,13.366-11.498   c13.926-14.212,24.556-32.584,31.123-53.647c5.674-2.334,10.857-5.837,15.234-10.368c8.156-8.44,12.647-19.553,12.647-31.288   c0-11.841-4.62-22.806-12.335-30.958c4.383-3.549,7.43-7.576,9.146-12.109c5.162-13.643-3.64-26.683-10.082-32.679l-2.516-10.63   c19.593-3.699,32.738-8.467,37.569-18.87c3.249-6.999,2.046-15.159-3.578-24.253c-7.96-12.874-27.19-27.966-50.187-39.388   c-20.018-9.943-52.142-21.795-91.502-21.795c-69.26,0-129.48,36.137-142.165,62.044c-3.322,6.786-3.44,13.798-0.343,20.277   c5.774,12.079,21.84,19.121,32.4,22.575l-1.73,10.275c-1.614,1.466-4.537,4.347-7.181,8.169c-7.328,10.595-6.522,19.41-4.558,24.94   c1.731,4.871,4.976,9.111,9.753,12.778c-7.417,7.954-11.874,18.714-11.874,30.281c0,12.072,4.729,23.356,13.314,31.785   c5.571,5.468,12.349,9.316,19.745,11.31c6.593,20.187,16.962,37.805,30.421,51.542c4.236,4.323,8.739,8.179,13.448,11.554   l-82.278,17.331c0,0,0.032,0.021,0.095,0.021h-0.095L55.361,435.594c0,0,74.871,53.504,189.957,53.504   c115.084,0,193.601-53.568,193.601-53.568L378.943,333z M300.629,336.939l-0.372,24.86l-33.603-10.825l9.373-19.207   L300.629,336.939z M230.879,102.515c4.691-1.84,10.064-2.513,12.479-2.618c2.967,0.133,8.062,0.926,12.447,2.662   c-2.497,4.116-1.95,9.466,1.463,12.994c5.176,5.352,7.958,10.261,8.047,14.198c0.021,0.992,0.09,4.013-3.852,8.237   c-4.943,5.296-13.16,9.281-18.211,11.28c-2.173-0.838-5.264-2.163-8.482-3.985c-6.834-3.868-11.254-8.299-12.446-12.476   c-1.341-4.696,1.145-10.622,7.385-17.614C232.868,111.652,233.295,106.498,230.879,102.515z M140.383,159.719   c-0.942-2.604,1.792-6.804,4.423-9.719h77.755c9.225,7.233,20.737,10.623,20.737,10.623s11.388-3.517,20.729-10.623h79.705   c2,2.584,3.93,6.151,2.951,8.683c-1.246,3.225-12.146,19.312-104.569,19.312C149.66,177.994,141.059,161.589,140.383,159.719z    M120.643,91.812c-0.25-0.523-0.562-1.174,0.262-2.855c3.753-7.665,17.813-20.385,40.766-31.524   c25.662-12.455,55.294-19.314,83.437-19.314c66.032,0,115.271,36.485,124.679,51.7c2.028,3.281,2.328,4.908,2.37,5.395   c-0.446,0.508-2.526,2.384-10.308,4.617c-6.562,1.883-15.457,3.501-24.22,4.89c-12.254-2.445-34.604-5.769-69.091-6.871   c-9.19-8.276-25.164-8.668-25.164-8.668s-16.181,0.365-25.371,8.75c-37.076,1.303-60.477,5.12-71.935,7.512   C136.343,102.861,123.204,97.17,120.643,91.812z M168.008,233.694c-1.172,0.169-2.369,0.427-3.589,0.427   c-13.812,0-25.01-10.641-25.01-24.454c0-8.951,4.71-17.174,11.778-20.913c1.124,0.35,2.278,0.69,3.466,1.019   c19.692,5.455,49.118,8.221,87.461,8.221c43.178,0,74.454-3.334,94.93-10.269c6.939,4.447,11.547,12.221,11.547,21.073   c0,13.508-10.711,24.531-24.104,25.008c-10.323,45.449-41.434,78.508-78.212,78.508   C209.43,312.314,178.277,279.266,168.008,233.694z M213.059,332.564l8.242,17.337l-36.904,11.89l-0.254-23.136L213.059,332.564z    M223.822,400.326l10.974,10.973l-13.146,56.979c-44.841-3.076-81.518-14.31-105.699-23.966   c-13.992-5.588-25.322-11.216-33.541-15.713l44.569-77.902l0.076-0.017l4.017,18.848l43.308-9.229l0.092,8.388   c0.018,1.589,0.789,3.074,2.077,4.003c0.862,0.62,1.887,0.942,2.923,0.942c0.515,0,1.032-0.079,1.533-0.241l44.628-14.378   l9.318,19.602l-11.129,11.129C220.912,392.652,220.912,397.415,223.822,400.326z M244.909,372.735   c-0.561-0.068-1.126-0.077-1.688-0.019l-20.098-42.271l3.161-0.666c6.55,1.671,13.247,2.536,19.99,2.536   c6.59,0,13.136-0.826,19.544-2.428L244.909,372.735z M253.204,411.299l10.974-10.973c2.91-2.911,2.91-7.674,0-10.584   l-11.049-11.049l9.096-18.641l41.397,13.337c0.502,0.162,1.019,0.241,1.533,0.241c1.032,0,2.054-0.323,2.913-0.939   c1.289-0.924,2.062-2.406,2.086-3.991l0.17-11.374l53.422,11.49l3.508-16.307l44.33,75.842   c-24.907,13.168-77.113,36.033-145.192,40.111L253.204,411.299z" fill="#333333"/></g></svg>