<?xml version="1.0" ?><!DOCTYPE svg  PUBLIC '-//W3C//DTD SVG 1.1//EN'  'http://www.w3.org/Graphics/SVG/1.1/DTD/svg11.dtd'><svg fill-rule="evenodd" height="12pt" overflow="visible" stroke-linejoin="bevel" stroke-width="0.501" version="1.1" viewBox="0 0 12 12" width="12pt" xmlns="http://www.w3.org/2000/svg" xmlns:xlink="http://www.w3.org/1999/xlink"><defs/><g fill="none" font-family="Times New Roman" font-size="16" id="Document" stroke="black" transform="scale(1 -1)"><g id="Spread" transform="translate(0 -12)"><g id="Layer 1"><path d="M 1.498,1.069 L 1.497,2.323 C 1.06,2.487 0.749,2.909 0.749,3.404 L 0.749,4.847 C 0.749,5.407 1.149,5.875 1.68,5.979 L 2.249,8.251 C 2.4,9.208 3.185,9.751 3.749,9.751 L 4.498,9.751 C 4.498,9.762 4.498,9.774 4.498,9.786 L 4.498,10.465 C 4.498,10.898 4.85,11.25 5.283,11.25 L 6.714,11.25 C 7.147,11.25 7.499,10.898 7.499,10.465 L 7.499,9.786 C 7.499,9.774 7.498,9.762 7.498,9.751 L 8.249,9.751 C 8.813,9.751 9.581,9.265 9.749,8.251 L 10.317,5.978 L 10.317,5.979 C 10.848,5.876 11.25,5.408 11.25,4.847 L 11.25,3.404 C 11.25,2.909 10.937,2.486 10.5,2.322 L 10.5,1.069 C 10.5,0.894 10.357,0.751 10.182,0.751 L 9.317,0.751 C 9.142,0.751 8.999,0.894 8.999,1.069 L 8.999,2.25 L 2.999,2.25 L 2.999,1.069 C 2.999,0.894 2.856,0.751 2.681,0.751 L 1.816,0.751 C 1.641,0.751 1.498,0.894 1.498,1.069 Z M 2.999,4.5 L 2.999,4.501 C 2.999,4.914 2.663,5.25 2.249,5.25 L 2.248,5.25 C 1.834,5.25 1.498,4.914 1.498,4.501 L 1.498,4.5 C 1.498,4.087 1.834,3.751 2.248,3.751 L 2.249,3.751 C 2.663,3.751 2.999,4.087 2.999,4.5 Z M 10.499,4.501 L 10.499,4.502 C 10.499,4.915 10.163,5.251 9.749,5.251 L 9.748,5.251 C 9.334,5.251 8.998,4.915 8.998,4.502 L 8.998,4.501 C 8.998,4.088 9.334,3.752 9.748,3.752 L 9.749,3.752 C 10.163,3.752 10.499,4.088 10.499,4.501 Z M 8.249,6 L 8.249,6.001 L 9.448,6.001 L 8.999,8.251 C 8.999,8.605 8.69,9.001 8.249,9.001 L 3.749,9.001 C 3.308,9.001 2.999,8.605 2.999,8.251 L 2.549,6.001 L 5.248,6.001 L 5.248,6 L 8.249,6 Z M 6.749,7.504 C 7.413,7.504 7.966,7.013 8.063,6.375 L 7.528,6.375 C 7.438,6.722 7.123,6.979 6.749,6.979 C 6.373,6.979 6.058,6.722 5.968,6.375 L 5.433,6.375 C 5.53,7.013 6.083,7.504 6.749,7.504 Z M 5.275,10.079 L 5.275,10.549 L 5.413,10.549 L 5.425,10.7 L 4.936,10.7 L 4.924,10.549 L 5.071,10.549 L 5.071,10.079 L 5.275,10.079 Z M 5.618,10.079 L 5.641,10.177 L 5.781,10.177 L 5.804,10.079 L 6.003,10.079 L 5.867,10.7 L 5.564,10.7 L 5.429,10.079 L 5.618,10.079 Z M 6.28,10.079 L 6.337,10.277 L 6.346,10.277 L 6.396,10.079 L 6.629,10.079 L 6.519,10.401 L 6.615,10.7 L 6.406,10.7 L 6.362,10.516 L 6.352,10.516 L 6.311,10.7 L 6.071,10.7 L 6.177,10.401 L 6.061,10.079 L 6.28,10.079 Z M 6.944,10.079 L 6.944,10.7 L 6.741,10.7 L 6.741,10.079 L 6.944,10.079 Z M 5.667,10.294 L 5.709,10.516 L 5.717,10.516 L 5.759,10.294 L 5.667,10.294 Z" fill="#000000" marker-end="none" marker-start="none" stroke="none" stroke-linecap="round" stroke-linejoin="miter" stroke-miterlimit="79.8403193612775" stroke-width="0.75"/></g></g></g></svg>