<?xml version="1.0" ?><!DOCTYPE svg  PUBLIC '-//W3C//DTD SVG 1.1//EN'  'http://www.w3.org/Graphics/SVG/1.1/DTD/svg11.dtd'><svg enable-background="new 0 0 128 128" height="128px" id="Layer_1" version="1.1" viewBox="0 0 128 128" width="128px" xml:space="preserve" xmlns="http://www.w3.org/2000/svg" xmlns:xlink="http://www.w3.org/1999/xlink"><path d="M113.293,121.729L98.312,100H100c6.6,0,12-5.4,12-12V24c0-13.2-10.799-24-24-24H40C26.801,0,16,10.8,16,24v64  c0,6.6,5.4,12,12,12h1.689l-14.982,21.729c-1.254,1.818-0.796,4.31,1.022,5.563c0.693,0.479,1.484,0.707,2.267,0.707  c1.271,0,2.521-0.604,3.296-1.729L26.995,118h74.01l5.702,8.271c0.776,1.126,2.025,1.729,3.297,1.729  c0.782,0,1.573-0.229,2.267-0.707C114.089,126.039,114.547,123.548,113.293,121.729z M92,84c-4.418,0-8-3.582-8-8s3.582-8,8-8  s8,3.582,8,8S96.418,84,92,84z M54,8h20c2.2,0,4,1.8,4,4s-1.8,4-4,4H54c-2.2,0-4-1.8-4-4S51.8,8,54,8z M28,30c0-4.4,3.6-8,8-8h56  c4.4,0,8,3.6,8,8v20c0,2.2-1.8,4-4,4H32c-2.2,0-4-1.8-4-4V30z M28,76c0-4.418,3.582-8,8-8s8,3.582,8,8s-3.582,8-8,8S28,80.418,28,76  z M32.511,110l6.895-10h49.189l6.895,10H32.511z"/></svg>